<?xml version="1.0" encoding="UTF-8"?>
<svg width="347px" height="296px" viewBox="0 0 347 296" version="1.1" xmlns="http://www.w3.org/2000/svg" xmlns:xlink="http://www.w3.org/1999/xlink">
    <!-- Generator: Sketch 48.2 (47327) - http://www.bohemiancoding.com/sketch -->
    <title>Group 4</title>
    <desc>Created with Sketch.</desc>
    <defs></defs>
    <g id="0a-login-copy-7" stroke="none" stroke-width="1" fill="none" fill-rule="evenodd" transform="translate(-224.000000, -130.000000)">
        <g id="Group-4" transform="translate(224.000000, 130.000000)">
            <g id="comments" transform="translate(142.547759, 148.000000) scale(-1, 1) translate(-142.547759, -148.000000) translate(0.047759, 0.000000)" fill-rule="nonzero">
                <g id="Objects" transform="translate(-0.000000, 0.000000)">
                    <g id="speech_bubbles">
                        <path d="M172.324327,116.150108 C175.485766,113.711941 178.750858,111.325651 181.808643,108.731856 C189.168058,102.454874 195.387282,95.1922502 199.637085,86.4252255 C202.332082,80.8745057 203.990542,74.9606548 204.146022,68.7355485 C204.456983,57.8416125 199.948046,49.1783396 191.552094,42.641978 C176.885091,31.1774073 155.532423,32.0074214 141.69465,44.457634 C132.313987,52.9652792 128.323318,66.1417542 133.246871,78.3325873 C135.786387,84.6095695 140.139844,89.4859027 145.685318,93.3247183 C153.614829,98.875438 162.477223,101.261729 172.117019,100.950473 C172.324327,100.950473 172.479808,100.950473 172.687115,100.898598 C176.522303,100.068583 177.040572,102.143619 176.263169,104.996793 C175.433939,108.05747 174.08644,110.910644 172.894422,113.867569 C172.635288,114.49008 172.2725,115.11259 171.961539,115.735101 C172.065193,115.942604 172.168846,116.046356 172.324327,116.150108 Z" id="Shape" fill="#00B086"></path>
                        <g id="tripadvisor-logotype" transform="translate(148.134982, 54.000000)" fill="#FFFFFF">
                            <path d="M23.7943333,0.392363636 C24.8780606,0.545606061 25.9393333,0.817818182 26.988,1.14006061 C28.8186364,1.70378788 30.5460606,2.48693939 32.1706667,3.50290909 C32.2837273,3.5730303 32.4346061,3.61754545 32.5677576,3.61754545 C34.476,3.62542424 36.3834545,3.62266667 38.2901212,3.62424242 C38.4437576,3.62424242 38.5966061,3.64039394 38.7498485,3.64906061 C38.7498485,3.68648485 38.7553636,3.70224242 38.7490606,3.71090909 C38.6600303,3.848 38.5698182,3.98312121 38.4803939,4.11981818 C37.8331515,5.11254545 37.2800606,6.1509697 36.9534848,7.29890909 C36.9180303,7.42221212 36.9105455,7.52542424 36.9940606,7.64636364 C38.6927273,10.0856364 39.2347879,12.7636364 38.5249091,15.6504242 C37.9024848,18.1822727 36.4512121,20.156303 34.2459394,21.554 C32.6697879,22.5534242 30.9285758,23.029303 29.0683939,23.0395455 C28.2868182,23.0442727 27.5091818,22.9390909 26.7457273,22.7413333 C24.8855455,22.2587576 23.2908788,21.3314242 21.976697,19.9270303 C21.8033636,19.7426667 21.6402727,19.5500303 21.4555152,19.3416364 C20.7606061,20.377303 20.0767273,21.3960303 19.376303,22.4415455 C18.6786364,21.3991818 18.0042121,20.390303 17.3313636,19.3853636 C17.2848788,19.4097879 17.2714848,19.4125455 17.2624242,19.4212121 C17.2470606,19.4338182 17.2340606,19.4491818 17.2218485,19.4637576 C15.632303,21.3408788 13.6326667,22.4915758 11.1965455,22.8764545 C9.84139394,23.0911515 8.49924242,23.0139394 7.18309091,22.6511212 C5.31778788,22.1386061 3.73257576,21.1545455 2.45187879,19.7024848 C1.20033333,18.2827273 0.421909091,16.6344848 0.129606061,14.7605152 C-0.204848485,13.0114242 0.202484848,11.3249697 0.304121212,10.9156667 C0.598787879,9.7259697 1.11248485,8.63357576 1.81763636,7.6290303 C1.86727273,7.55772727 1.88460606,7.43166667 1.8609697,7.34657576 C1.57339394,6.292 1.07781818,5.33275758 0.497545455,4.41409091 C0.350212121,4.18048485 0.173727273,3.96421212 0.0106363636,3.74006061 L0.0106363636,3.66206061 C0.0433333333,3.666 0.0756363636,3.67230303 0.107545455,3.67230303 C2.05990909,3.67309091 4.01187879,3.67387879 5.96424242,3.66993939 C6.04933333,3.66993939 6.14387879,3.63487879 6.21636364,3.58839394 C7.58806061,2.70833333 9.04957576,2.01106061 10.5851515,1.46821212 C11.6925152,1.07742424 12.8231212,0.772515152 13.9761818,0.549151515 C15.0926061,0.333272727 16.2149394,0.181212121 17.3490909,0.106363636 C20.1141515,-0.106363636 22.3241515,0.186333333 23.7943333,0.392363636 Z M21.3467879,13.2863939 C21.3467879,17.5736364 24.8252727,21.0761515 29.0971515,21.0596061 C33.3851818,21.0442424 36.8479091,17.6402121 36.8447576,13.305697 C36.8416061,8.83881818 33.2181515,5.48087879 28.9309091,5.56793939 C24.6984242,5.65578788 21.3853939,9.06730303 21.3467879,13.2863939 Z M9.72124242,5.53839394 C5.551,5.50215152 1.91493939,8.98260606 1.98781818,13.416 C2.05557576,17.5503939 5.46315152,21.0552727 9.80790909,21.0178485 C14.0561515,20.9816061 17.4708182,17.5125758 17.478697,13.3116061 C17.4853939,8.99560606 14.0289697,5.53839394 9.72124242,5.53839394 Z M10.1057273,3.51590909 C12.4614848,3.65969697 14.5308485,4.48066667 16.2791515,6.07060606 C18.0239091,7.65739394 19.0461818,9.63693939 19.4176667,11.9647273 C19.7997879,9.66451515 20.7952727,7.70348485 22.5073333,6.13245455 C24.2221515,4.55984848 26.2639394,3.73454545 28.5810909,3.5600303 C25.8313939,2.33763636 22.932,1.81842424 19.9475152,1.76090909 C16.555697,1.69433333 13.2564545,2.19424242 10.1057273,3.51590909 Z" id="Shape"></path>
                            <path d="M29.0813939,8.39524242 C31.7345758,8.39090909 33.8835152,10.5284242 33.8835152,13.1788485 C33.8835152,15.8395152 31.7712121,17.8962727 29.2791515,17.9912121 C26.4959697,18.0979697 24.2690303,15.8804848 24.2698182,13.1906667 C24.2721818,10.4701212 26.5148788,8.35033333 29.0813939,8.39524242 Z M32.2108485,13.1906667 C32.2096667,11.4612727 30.8115758,10.055697 29.094,10.055697 C27.3567273,10.055697 25.9424848,11.4537879 25.9353939,13.1780606 C25.9290909,14.8948485 27.3504242,16.3232727 29.0715455,16.328 C30.7954242,16.334697 32.2116364,14.9169091 32.2108485,13.1906667 Z" id="Shape"></path>
                            <path d="M9.61881818,8.39524242 C12.2704242,8.39248485 14.4225152,10.5339394 14.4158182,13.1839697 C14.4083333,15.866303 12.2940606,17.8781515 9.84572727,17.9896364 C7.05151515,18.1172727 4.797,15.8899394 4.80212121,13.1855455 C4.80763636,10.445697 7.06569697,8.34954545 9.61881818,8.39524242 Z M12.7447273,13.1800303 C12.7396061,11.44 11.3324545,10.0529394 9.57587879,10.0560909 C7.88154545,10.0592424 6.46178788,11.4892424 6.46572727,13.1898788 C6.47006061,14.9102121 7.88824242,16.3248485 9.61409091,16.3295758 C11.329303,16.3335152 12.7490606,14.9050909 12.7447273,13.1800303 Z" id="Shape"></path>
                            <path d="M29.0837576,11.5987576 C29.9630303,11.5979697 30.6839394,12.3192727 30.6756667,13.1934242 C30.667,14.0695455 29.958303,14.7794242 29.0936061,14.7798182 C28.203303,14.7798182 27.4875152,14.0762424 27.4894848,13.2044545 C27.4910606,12.2999697 28.1863636,11.5995455 29.0837576,11.5987576 Z" id="Shape"></path>
                            <path d="M9.61054545,11.5845758 C10.5032121,11.5837879 11.2205758,12.2968182 11.2241212,13.1867273 C11.2276667,14.0691515 10.5036061,14.7936061 9.61527273,14.7955758 C8.70566667,14.7975455 8.00406061,14.0947576 8.00484848,13.1804242 C8.00484848,12.2826364 8.70487879,11.5857576 9.61054545,11.5845758 Z" id="Shape"></path>
                        </g>
                        <path d="M248.509819,173.732341 C249.598183,177.311777 250.686547,180.839337 251.826738,184.626277 C252.137699,184.055642 252.29318,183.692511 252.448661,183.381256 C254.573562,178.453047 256.75029,173.524837 258.823365,168.596628 C259.23798,167.610987 259.859902,167.247855 260.89644,167.040352 C264.990762,166.314089 268.670469,164.705937 271.572774,161.64526 C278.051132,154.797643 277.118248,145.563735 269.499699,139.805512 C266.18278,137.315469 262.399419,135.966696 258.460577,135.136682 C256.957598,134.825427 255.817407,134.254792 254.78087,133.009771 C251.256643,128.755948 246.384917,127.459051 241.098577,127.666555 C237.57435,127.822182 234.309258,128.911576 231.45878,131.090363 C231.044165,131.401618 230.318589,131.349742 229.748494,131.297867 C222.440906,130.156597 215.703413,131.50537 210.157939,136.537331 C201.658333,144.266838 202.643043,156.405795 212.127359,162.838405 C213.371204,163.720295 214.822356,164.29093 216.169855,165.069068 C216.532643,165.276572 216.999085,165.639703 216.999085,165.950958 C217.361873,170.879167 220.264177,173.99172 224.410326,175.911128 C232.443491,179.698068 240.321174,179.283061 247.784243,174.199224 C247.99155,174.095472 248.198858,173.99172 248.509819,173.732341 Z" id="Shape" fill="#00B086"></path>
                        <path d="M182.275085,212.483628 C180.357491,208.54106 178.543551,204.805997 176.625957,200.915305 C177.299706,200.863429 177.817975,200.811553 178.284416,200.811553 L202.69487,200.811553 C203.420446,200.811553 204.197849,200.759677 204.923425,200.759677 C207.618422,200.655926 209.63967,198.736518 209.63967,196.038972 C209.691497,186.701312 209.691497,177.415529 209.63967,168.077869 C209.63967,165.380323 207.514768,163.253412 204.819771,163.253412 C192.744112,163.201536 180.720279,163.253412 168.644619,163.253412 L156.56896,163.253412 C152.837426,163.253412 150.971658,165.120944 150.919832,168.856008 C150.868005,176.01488 150.919832,183.173752 150.919832,190.332624 L150.919832,196.246475 C150.919832,198.425263 152.941079,200.60405 155.169635,200.759677 C157.346363,200.863429 159.574918,200.759677 161.751646,200.863429 C162.736357,200.915305 163.772894,201.174685 164.602124,201.693443 C170.147599,205.065376 175.641246,208.54106 181.134894,211.964869 C181.497682,212.068621 181.756816,212.224248 182.275085,212.483628 Z" id="Shape" fill="#E84D4C"></path>
                        <g id="google-plus" transform="translate(181.047759, 183.450000) scale(-1, 1) translate(-181.047759, -183.450000) translate(168.047759, 175.000000)" fill="#FFFFFF">
                            <path d="M9.1071939,10.0469891 L13.1626275,10.0469891 C12.4507712,12.0595817 10.5228061,13.5025534 8.26567756,13.4858998 C5.52695425,13.4656776 3.26240523,11.2747669 3.15608279,8.53802614 C3.04211329,5.60444444 5.39565142,3.18151634 8.30436601,3.18151634 C9.63433115,3.18151634 10.8480044,3.68826144 11.7629891,4.51861874 C11.9797124,4.71534641 12.3096122,4.71659259 12.5227669,4.51595643 L14.0123007,3.11405229 C14.2452244,2.89477996 14.2460741,2.52449237 14.0138301,2.30448366 C12.5627582,0.929769063 10.6162135,0.0729019608 8.46965577,0.0309847495 C3.89127669,-0.0584008715 0.0321176471,3.69539869 0.000226579521,8.27457081 C-0.0319477124,12.8881264 3.69828758,16.6381307 8.30436601,16.6381307 C12.733939,16.6381307 16.3525272,13.1698214 16.5949107,8.80085839 C16.6013682,8.74608279 16.6056166,6.89487146 16.6056166,6.89487146 L9.1071939,6.89487146 C8.79983878,6.89487146 8.5507146,7.14399564 8.5507146,7.45135076 L8.5507146,9.4905098 C8.5507146,9.79786492 8.79989542,10.0469891 9.1071939,10.0469891 Z" id="Shape"></path>
                            <path d="M23.4772636,7.08004357 L23.4772636,5.0876732 C23.4772636,4.8183268 23.2589542,4.60001743 22.9896078,4.60001743 L21.3126928,4.60001743 C21.0433464,4.60001743 20.825037,4.8183268 20.825037,5.0876732 L20.825037,7.08004357 L18.8326667,7.08004357 C18.5633203,7.08004357 18.3450109,7.29835294 18.3450109,7.56769935 L18.3450109,9.24461438 C18.3450109,9.51396078 18.5633203,9.73227015 18.8326667,9.73227015 L20.825037,9.73227015 L20.825037,11.7246405 C20.825037,11.9939869 21.0433464,12.2122963 21.3126928,12.2122963 L22.9896078,12.2122963 C23.2589542,12.2122963 23.4772636,11.9939869 23.4772636,11.7246405 L23.4772636,9.73227015 L25.469634,9.73227015 C25.7389804,9.73227015 25.9572898,9.51396078 25.9572898,9.24461438 L25.9572898,7.56769935 C25.9572898,7.29835294 25.7389804,7.08004357 25.469634,7.08004357 L23.4772636,7.08004357 L23.4772636,7.08004357 Z" id="Shape"></path>
                        </g>
                        <path d="M127.234954,245.684194 C128.064184,249.678638 128.841587,253.569329 129.774471,257.926903 C127.545915,256.266875 125.576494,254.81435 123.6589,253.413701 C122.415056,252.479935 121.274865,251.027411 119.927366,250.819907 C118.735348,250.612404 117.336023,251.909301 115.988524,252.376184 C109.561993,254.762474 103.187289,254.710599 96.9680649,251.701797 C94.0139335,250.301148 91.6298977,248.226113 91.2152828,244.646677 C91.163456,244.335421 90.6451873,244.024166 90.2823992,243.816663 C88.5721127,242.882897 86.7063455,242.156634 85.1515396,241.015365 C77.9994322,235.7759 78.0512591,227.164503 85.2033665,221.925039 C90.1787455,218.293727 95.8797007,217.359961 101.83979,217.982471 C103.135462,218.138099 104.120172,217.930596 105.260363,217.359961 C111.168626,214.403035 117.128715,214.454911 122.985151,217.515589 C123.607074,217.826844 124.33265,218.189975 124.643611,218.76061 C125.887456,220.680018 127.856877,220.887521 129.826297,221.198776 C133.350524,221.821287 136.615617,223.17006 139.414267,225.556351 C144.596954,229.965801 144.596954,236.242783 139.414267,240.652234 C136.356482,243.246028 132.728602,244.542925 128.893414,245.217311 C128.530626,245.269187 128.167838,245.321063 127.80505,245.372939 C127.649569,245.424815 127.545915,245.528567 127.234954,245.684194 Z" id="Shape" fill="#4665AC"></path>
                        <path d="M128.116011,43.4201163 C130.966488,42.175095 133.816966,40.9300738 136.667444,39.7369284 C142.472053,37.2468859 148.224835,34.7049675 154.029443,32.214925 C154.547712,32.0074214 155.221461,31.9036697 155.791557,31.9036697 C158.071939,31.8517938 160.352321,31.9036697 162.68453,31.9036697 C165.483181,31.8517938 167.400775,30.0880137 167.400775,27.2867158 C167.452602,19.7647124 167.400775,12.1908331 167.400775,4.66882971 C167.400775,2.1787872 165.483181,0.311255314 163.047318,0.311255314 C150.297909,0.311255314 137.496673,0.259379428 124.747265,0.311255314 C122.311402,0.311255314 120.393808,2.23066308 120.341981,4.66882971 C120.290154,10.8420601 120.341981,17.0152905 120.341981,23.1885209 L120.341981,27.0792123 C120.393808,30.0880137 122.207748,31.9036697 125.265533,31.9036697 L137.911288,31.9036697 L139.673402,31.9036697 C135.579079,35.846237 131.795718,39.5813007 128.012357,43.2644886 C128.012357,43.3163645 128.064184,43.3682404 128.116011,43.4201163 Z" id="Shape" fill="#4665AC"></path>
                        <path d="M148.795496,5.00460659 L145.924437,5 C142.698901,5 140.614418,7.13861057 140.614418,10.4486776 L140.614418,12.9608828 L137.727696,12.9608828 C137.478249,12.9608828 137.27625,13.1631122 137.27625,13.4125592 L137.27625,17.0524583 C137.27625,17.3019053 137.47848,17.5039043 137.727696,17.5039043 L140.614418,17.5039043 L140.614418,26.6885285 C140.614418,26.9379754 140.816417,27.1399745 141.065864,27.1399745 L144.832214,27.1399745 C145.081661,27.1399745 145.28366,26.9377451 145.28366,26.6885285 L145.28366,17.5039043 L148.65891,17.5039043 C148.908357,17.5039043 149.110356,17.3019053 149.110356,17.0524583 L149.111738,13.4125592 C149.111738,13.2927878 149.06406,13.1780837 148.979529,13.0933224 C148.894998,13.0085611 148.779833,12.9608828 148.660062,12.9608828 L145.28366,12.9608828 L145.28366,10.8312551 C145.28366,9.80767026 145.527579,9.28804662 146.860957,9.28804662 L148.795035,9.28735563 C149.044252,9.28735563 149.246251,9.08512622 149.246251,8.83590957 L149.246251,5.45605266 C149.246251,5.20706633 149.044482,5.00506725 148.795496,5.00460659 Z" id="Shape" fill="#FFFFFF" transform="translate(143.261251, 16.069987) scale(-1, 1) translate(-143.261251, -16.069987) "></path>
                        <path d="M53.1743637,75.1681583 C52.5524414,73.8712612 51.9823458,72.6262399 51.4122503,71.3812186 C51.153116,70.8105839 50.9976354,70.1361974 50.9458085,69.4618109 C50.7385011,67.6461549 51.2567697,67.127396 53.0188831,67.2830237 C57.683301,67.6461549 62.1404114,66.8680166 66.3902144,64.8448571 C71.8838621,62.147311 76.0300113,58.2047437 77.4811635,52.0833892 C79.0877964,45.4432758 76.133665,38.543783 70.0699218,34.2899604 C66.3902144,31.6961661 62.295892,30.2955172 57.8387816,29.7767584 C50.375713,28.8948683 43.5863937,30.5548966 37.8336116,35.4312299 C30.5778505,41.5525844 29.4894863,50.5789885 34.7758266,58.9310061 C38.455534,64.7929812 43.6382205,69.1505556 49.2873488,72.9374952 C50.4275399,73.6637576 51.5677309,74.39002 52.7597488,75.0644065 C52.9152294,75.1681583 53.0188831,75.1162824 53.1743637,75.1681583 Z" id="Shape" fill="#E84D4C"></path>
                        <path d="M103.49825,84.5058177 C103.083635,83.7795553 102.66902,83.1051688 102.306232,82.3789064 C101.995271,81.7563958 101.736136,81.0820093 101.632483,80.4076228 C101.373348,78.5919668 101.83979,78.1250838 103.65373,78.2288356 C109.561993,78.5400909 115.211121,77.6063249 120.393808,74.5975236 C122.000441,73.6637576 123.555247,72.574364 124.850918,71.2774669 C130.344566,65.8823748 130.137259,58.4641231 124.436303,53.069031 C120.290154,49.1783396 115.159295,47.3626836 109.61382,46.740173 C102.876328,45.9620347 96.3461425,46.740173 90.386053,50.2677332 C88.3129784,51.5127544 86.2917306,53.1209069 84.7887515,55.0403147 C80.9017366,59.864772 81.160871,65.6229953 85.2033665,71.0699633 C88.4166321,75.4275377 92.666435,78.6438426 97.2271992,81.3932646 C99.1966201,82.5864099 101.217868,83.6758035 103.239116,84.817073 C103.394596,84.6614454 103.446423,84.6095695 103.49825,84.5058177 Z" id="Shape" fill="#F39035"></path>
                        <path d="M96.3461425,45.4432758 C95.0504708,42.7976057 93.7547992,40.1000596 92.3554739,37.2468859 L94.0657604,37.2468859 L111.583241,37.2468859 C114.74468,37.2468859 116.040351,36.0018646 116.040351,32.8893115 L116.040351,14.058365 C116.040351,11.4126948 114.74468,10.0120459 112.153336,10.0120459 C100.803253,10.0120459 89.4531694,9.96017004 78.1030859,9.96017004 C74.8898203,9.96017004 73.6978024,11.2051913 73.6978024,14.3696203 L73.6978024,33.2005668 C73.6978024,35.7424852 75.1489546,37.4025136 77.6366441,37.19501 C81.2645247,36.8318788 84.218656,37.9212724 87.1209605,39.9444319 C90.0232649,42.0194674 93.1328768,43.7313716 96.138835,45.5989035 C96.1906619,45.5470276 96.2943156,45.4951517 96.3461425,45.4432758 Z" id="Shape" fill="#5C942C"></path>
                        <path d="M248.768953,100.74297 C250.271932,100.224211 251.515777,99.342321 251.671258,97.6822927 C251.826738,96.0222643 250.893855,94.7253672 249.442702,94.1028566 C248.095204,93.5322218 246.592225,93.0653388 245.141073,93.0653388 C242.186941,93.0653388 239.284637,93.4803459 236.330505,93.5840977 C233.94647,93.6359736 232.391664,92.079697 232.339837,89.6415304 C232.28801,86.1139702 232.28801,82.5864099 232.28801,79.0588497 C232.28801,74.6493994 232.339837,70.2399492 232.339837,65.8823748 C232.339837,63.0292011 233.894643,61.4729245 236.74512,61.4729245 L264.36884,61.4729245 C267.426625,61.4729245 268.877777,62.9773252 268.877777,66.0380024 L268.877777,87.9296262 C268.877777,92.4947041 268.566816,92.8578353 264.057878,93.2728424 C261.207401,93.5322218 258.719711,94.4141119 256.957598,96.8522785 C256.232022,97.8379203 255.247311,98.7198104 254.262601,99.4979487 C252.396834,101.002349 250.375586,101.884239 247.680589,101.054225 C248.198858,100.898598 248.509819,100.846722 248.768953,100.74297 Z" id="Shape" fill="#0099E8"></path>
                        <path d="M148.173008,163.14966 C147.758393,161.230253 147.240124,159.258969 146.877336,157.287685 C146.670029,156.146416 147.291951,155.731409 148.432142,155.83516 C156.309826,156.665175 163.721067,151.373834 166.260584,144.11121 C170.45856,132.024129 161.02607,119.677668 148.328488,120.455806 C140.554459,120.922689 133.350524,127.614679 132.26216,135.29231 C131.27745,142.139927 133.816966,147.846274 137.703981,153.137614 C140.658112,157.080182 144.285993,160.400238 148.173008,163.14966 Z" id="Shape" fill="#E84D4C"></path>
                        <path d="M183.726237,121.026441 C183.311622,122.42709 182.897007,123.620235 182.586046,124.865257 C182.378739,125.643395 182.015951,125.902774 181.186721,125.902774 C178.802685,125.850899 176.418649,125.850899 174.034613,125.902774 C171.44327,125.902774 170.199425,127.147796 170.199425,129.793466 L170.199425,154.849519 C170.199425,157.650816 171.391443,158.843962 174.190094,158.843962 L196.320166,158.843962 C199.170643,158.843962 200.414488,157.598941 200.414488,154.745767 L200.414488,130.208473 C200.414488,127.147796 199.22247,125.695271 196.216512,126.006526 C191.914882,126.473409 188.338828,125.384016 185.33287,122.323338 C184.970082,121.804579 184.399987,121.5452 183.726237,121.026441 Z" id="Shape" fill="#0099E8"></path>
                        <path d="M210.261592,49.5414708 C209.691497,52.7058998 209.121401,55.7147012 208.499479,59.0866338 C210.779861,57.2709778 212.749282,55.6628253 214.718703,54.0546728 C215.392452,53.4840381 215.858894,53.4321622 216.636297,53.8990452 C221.663503,56.8040948 226.846189,56.8559707 232.028876,54.2103005 C234.10195,53.1727828 235.604929,51.5127544 235.915891,49.0227119 C235.967717,48.6595807 236.485986,48.2445737 236.900601,48.0370701 C239.180983,47.0514283 241.150404,45.6507794 242.549729,43.5757439 C245.555688,39.010666 243.845401,32.6299321 238.714541,30.399269 C235.967717,29.2061236 232.909932,28.0648541 230.007628,28.1686059 C227.312631,28.2723577 225.239556,27.0792123 222.907347,26.5604535 C218.39841,25.4710599 214.459568,26.2491981 211.194476,29.7248825 C210.779861,30.1917654 210.002458,30.399269 209.380536,30.5030208 C206.685539,30.9699037 204.146022,31.9036697 202.021121,33.7193257 C197.615837,37.4543894 197.771318,42.9013574 202.383909,46.4289177 C204.405157,47.9851942 206.685539,48.8152084 209.173228,49.2820914 C209.484189,49.3858431 209.79515,49.437719 210.261592,49.5414708 Z" id="Shape" fill="#417505"></path>
                        <path d="M68.7742502,109.873126 C70.7954979,110.599388 72.4539576,110.132505 73.9569367,108.991236 C74.993474,108.213097 76.0300113,107.331207 76.8074143,106.29369 C78.465874,104.063027 80.746256,103.336764 83.3894262,103.181137 C83.8040411,103.181137 84.218656,103.129261 84.6332709,103.025509 C86.4990381,102.662378 87.0691336,101.987991 87.1209605,100.068583 L87.1209605,83.0532929 L87.1209605,79.5257327 C87.1209605,77.0875661 85.773462,75.738793 83.2857724,75.738793 L60.5337786,75.738793 L58.9789726,75.738793 C56.8022443,75.8425448 55.7138801,77.2431937 55.9211876,79.4219809 C56.0248413,80.9263816 55.8175339,82.4826582 55.7138801,83.9870589 C55.6620533,84.5058177 55.6102264,85.0245766 55.6102264,85.5433354 L55.6102264,99.4460728 C55.6102264,102.351122 56.8540712,103.596144 59.7563756,103.440516 C61.3630084,103.38864 62.9178144,103.129261 64.5244472,103.077385 C65.7164651,103.025509 66.9603099,103.025509 68.1523278,103.181137 C70.4327099,103.492392 72.0393427,104.789289 72.1948233,106.449317 C72.3503039,107.953718 71.4174203,108.93936 68.7742502,109.873126 Z" id="Shape" fill="#00B086"></path>
                        <path d="M268.463162,135.551689 C273.542195,132.542888 278.154786,129.067203 281.627186,124.19087 C287.639102,115.838853 285.462374,106.604945 276.185365,102.195495 C268.463162,98.5641827 260.844613,99.1866934 254.003467,104.52991 C246.384917,110.495636 247.421455,121.389572 256.024714,126.525285 C259.808075,128.807824 263.902398,129.845342 268.359508,129.378459 C269.499699,129.274707 270.069795,129.793466 269.862487,130.779108 C269.499699,132.439136 268.929604,133.943537 268.463162,135.551689 Z" id="Shape" fill="#4665AC"></path>
                        <path d="M128.530626,200.137167 C130.6037,200.811553 132.313987,200.500298 133.816966,199.307153 C135.008984,198.373387 136.304656,197.439621 137.082059,196.246475 C138.533211,193.963936 140.813593,194.119564 142.990321,193.756433 C145.892626,193.237674 146.618202,193.652681 146.618202,190.021369 L146.618202,171.190423 C146.618202,168.181621 145.529838,167.092228 142.472053,167.040352 L120.290154,167.040352 C116.921408,167.040352 115.884871,168.077869 115.884871,171.501678 C115.884871,177.830536 115.833044,184.159394 115.884871,190.488252 C115.884871,192.822667 117.284196,194.327068 120.290154,194.119564 C122.829671,193.912061 125.369187,193.756433 127.908703,193.756433 C129.308029,193.756433 130.655527,194.223316 131.484757,195.572089 C132.521294,197.180241 132.054853,198.788394 130.344566,199.618408 C129.774471,199.774036 129.256202,199.929663 128.530626,200.137167 Z" id="Shape" fill="#0099E8"></path>
                        <path d="M157.605497,204.442865 C157.035402,206.15477 156.361652,207.762922 155.947038,209.42295 C155.584249,210.979227 155.998864,211.394234 157.605497,211.290482 C163.306452,210.927351 168.333658,212.743007 172.117019,216.893078 C179.580088,225.037592 175.7449,234.686507 169.370196,238.992205 C160.404148,245.11356 147.447432,241.067241 144.182339,231.158946 C142.67936,226.541993 143.50859,222.132542 145.478011,217.930596 C148.017527,212.328 152.733772,207.555418 157.605497,204.442865 Z" id="Shape" fill="#4665AC"></path>
                        <path d="M218.916679,124.19087 C218.035622,123.931491 217.4137,123.775863 216.791777,123.516484 C214.148607,122.323338 213.785819,119.625792 216.014374,117.810136 C217.880141,116.25386 220.160524,116.201984 222.389079,116.305736 C224.51398,116.409487 226.690709,116.668867 228.81561,116.824494 C232.132529,117.083874 233.842816,115.527597 233.842816,112.207541 L233.842816,99.8610799 C233.842816,97.2672856 232.28801,95.6072572 229.696667,95.5553814 C220.160524,95.5035055 210.62438,95.5035055 201.088237,95.5035055 C198.704201,95.5035055 197.097569,97.2154097 197.097569,99.6535763 C197.045742,104.114902 197.045742,108.524353 197.097569,112.985679 C197.097569,114.956963 197.874971,115.890729 199.844392,116.25386 C201.295545,116.513239 202.798524,116.772619 204.249676,116.87637 C205.752655,117.031998 206.841019,117.75826 207.877556,118.795778 C209.121401,120.092675 210.313419,121.389572 211.609091,122.582718 C213.682165,124.45025 216.014374,125.176512 218.916679,124.19087 Z" id="Shape" fill="#4665AC"></path>
                        <path d="M63.2806025,236.554039 C62.9696413,235.568397 62.6068532,234.790258 62.5031995,233.960244 C62.3477189,232.870851 61.7257965,232.663347 60.7410861,232.715223 C59.0307995,232.767099 57.2686861,232.767099 55.5583995,232.715223 C53.5371518,232.663347 52.5524414,231.677705 52.5524414,229.654546 C52.5524414,222.962557 52.6042682,216.270567 52.6042682,209.578578 C52.6042682,207.711046 53.5889787,206.77728 55.4547458,206.77728 C61.3630084,206.77728 67.2194442,206.725404 73.1277069,206.725404 C75.6153964,206.725404 76.4446262,207.503543 76.4446262,209.941709 C76.4964531,216.478071 76.4964531,223.014432 76.4964531,229.60267 C76.4964531,231.677705 75.4599158,232.922727 73.3868412,232.663347 C69.8107875,232.24834 66.8048293,233.182106 64.2653129,235.7759 C64.0580054,236.03528 63.7470442,236.242783 63.2806025,236.554039 Z" id="Shape" fill="#0099E8"></path>
                        <path d="M188.597963,34.8087193 C193.93613,31.8517938 198.756028,28.3242336 201.243718,22.5141344 C203.368619,17.4302976 201.606506,12.2945849 196.890261,9.0264041 C191.29296,5.13571268 182.845181,5.34321622 177.40336,9.49328707 C170.976828,14.3696203 171.235963,22.9291415 177.973455,27.4423435 C181.083067,29.5173789 184.50364,30.399269 188.183348,30.2436413 C189.738154,30.1917654 190.100942,30.6586484 189.738154,32.1111732 C189.6345,32.6299321 189.427192,33.096815 189.219885,33.563698 C189.012578,33.9787051 188.80527,34.3937122 188.597963,34.8087193 Z" id="Shape" fill="#F8E71C"></path>
                        <path d="M218.605718,208.80044 C222.70004,207.03666 226.846189,205.376631 230.888685,203.457224 C233.169067,202.36783 235.501276,201.849071 238.040792,201.952823 C241.098577,202.10845 241.824153,201.278436 241.824153,198.165883 L241.824153,186.338181 C241.824153,184.159394 240.89127,183.225628 238.766368,183.225628 C231.45878,183.173752 224.151192,183.173752 216.895431,183.173752 C214.92601,183.173752 213.889473,184.263146 213.837646,186.234429 L213.837646,198.892146 C213.837646,201.019057 214.822356,201.952823 216.947258,202.004699 C219.538601,202.056575 222.181771,202.004699 224.876768,202.004699 C222.648213,204.183486 220.523312,206.362273 218.346583,208.489184 C218.39841,208.592936 218.502064,208.696688 218.605718,208.80044 Z" id="Shape" fill="#00B086"></path>
                        <path d="M106.763342,283.397963 C105.882286,283.242336 105.001229,283.19046 104.171999,282.879204 C103.550077,282.619825 102.928154,282.152942 102.513539,281.634183 C100.958733,279.611024 98.9893126,278.52163 96.3979693,278.52163 C95.2577783,278.52163 94.6358559,277.743492 94.6358559,276.602222 C94.6358559,271.933393 94.5840291,267.264563 94.6876828,262.595733 C94.6876828,261.039457 95.6723932,260.209442 97.2271992,260.209442 L118.268906,260.209442 C119.979193,260.209442 120.86025,261.143208 120.912077,262.803237 C120.912077,267.316439 120.963903,271.777765 120.912077,276.290967 C120.912077,278.054747 119.979193,278.936637 118.21708,278.936637 C115.159295,278.884761 112.049683,278.729134 108.991898,278.677258 C108.369975,278.677258 107.79988,278.781009 107.177957,278.884761 C105.985939,279.092265 104.949402,279.559148 104.845748,280.907921 C104.742095,282.256694 105.778632,282.723577 106.866996,283.034832 C106.815169,283.086708 106.815169,283.242336 106.763342,283.397963 Z" id="Shape" fill="#D0021B"></path>
                        <path d="M100.85508,191.940777 C102.928154,189.76199 104.845748,187.73883 106.918823,185.560043 C103.912865,186.85694 101.01056,188.101961 98.1082559,189.346983 C97.2790261,189.710114 96.4497962,189.969493 95.6723932,190.436376 C93.3920112,191.681397 91.0079754,192.14828 88.4166321,191.992653 C85.9807694,191.837025 85.1515396,192.770791 85.1515396,195.260834 L85.1515396,206.362273 C85.1515396,208.80044 86.0325963,209.68233 88.4166321,209.68233 L108.473629,209.68233 C110.59853,209.68233 111.583241,208.748564 111.583241,206.621653 L111.583241,195.105206 C111.583241,192.822667 110.754011,191.992653 108.473629,191.940777 L100.85508,191.940777 Z" id="Shape" fill="#417505"></path>
                        <path d="M40.7359161,105.619303 C45.1411996,102.921757 49.0282145,100.016708 51.3085966,95.5553814 C53.7444593,90.8865517 51.9823458,85.5433354 47.3697548,82.9495411 C41.7724534,79.7851121 36.2788057,80.303871 31.0442923,83.8314312 C26.0689132,87.2033638 26.2243938,94.7253672 31.3034266,98.5641827 C33.9984236,100.587342 37.0043818,101.417356 40.373128,101.365481 C41.9797608,101.313605 42.2388952,101.676736 41.7206265,103.284888 C41.4614922,103.907399 41.150531,104.633661 40.7359161,105.619303 Z" id="Shape" fill="#4665AC"></path>
                        <path d="M24.3586267,86.6846049 C24.7732416,83.6758035 25.1360296,81.0820093 25.4988177,78.3325873 C27.5718923,78.3325873 29.6449669,78.2807114 31.7698684,78.3325873 C34.3612117,78.4363391 35.397749,77.5025732 35.2940952,74.9087789 C35.1386146,71.6405981 35.2422684,68.3724173 35.2422684,65.1042365 C35.2422684,62.9773252 34.5166922,62.1991869 32.4436176,62.1991869 L14.2005611,62.1991869 C12.0756596,62.1991869 11.2982566,62.9254493 11.2982566,65.0523606 C11.2982566,68.5280449 11.2464298,71.9518534 11.2982566,75.4275377 C11.2982566,77.554449 12.0756596,78.5400909 14.1487342,78.2288356 C17.1028655,77.8138285 18.7613252,79.2663533 20.2643043,81.4451405 C21.4044953,83.1570447 22.8038207,84.7133213 24.3586267,86.6846049 Z" id="Shape" fill="#417505"></path>
                        <path d="M206.789192,208.956067 C207.048327,207.555418 207.359288,205.739762 207.773903,203.664727 C206.478231,204.702245 205.389867,205.532259 204.35333,206.414149 C203.783234,206.932908 203.316792,207.03666 202.539389,206.621653 C199.637085,205.065376 196.631127,205.117252 193.676995,206.466025 C192.433151,207.03666 191.552094,208.022301 191.085652,209.42295 C190.930172,209.941709 190.308249,210.356716 189.789981,210.616096 C185.488351,212.898635 184.814601,217.723092 188.442482,220.576266 C190.46373,222.132542 192.795939,222.651301 195.283628,222.495674 C195.957377,222.443798 196.73478,222.547549 197.356703,222.858805 C200.310834,224.31133 203.67958,223.844447 206.063616,221.613783 C206.478231,221.250652 207.15198,221.146901 207.670249,220.887521 C209.225055,220.161259 210.935342,219.6425 212.179186,218.553106 C214.407741,216.685574 214.407741,213.676773 212.179186,211.809241 C210.62438,210.719847 208.706786,209.993585 206.789192,208.956067 Z" id="Shape" fill="#0099E8"></path>
                        <path d="M11.920179,84.7651971 C13.2158506,83.6239277 14.4596954,82.5345341 15.755367,81.3932646 C15.7035402,81.3413887 15.6517133,81.2376369 15.5998864,81.185761 C13.1121969,82.119527 10.5726805,83.0532929 8.13681784,84.0908106 C6.42653129,84.817073 4.71624474,85.1802042 2.85047759,85.1283283 C1.0365373,85.0245766 0.466441787,85.5952113 0.466441787,87.4108673 L0.466441787,100.48359 C0.466441787,102.091743 1.0365373,102.714254 2.64317013,102.714254 L17.2065193,102.714254 C18.6576715,102.714254 19.227767,102.143619 19.227767,100.639218 L19.227767,87.0477361 C19.227767,85.750839 18.6058446,85.1283283 17.3619999,85.1283283 L12.0756596,85.1283283 C12.0238327,84.9727007 11.9720059,84.8689489 11.920179,84.7651971 Z" id="Shape" fill="#F5A623"></path>
                        <path d="M40.7359161,230.173305 C42.3425489,231.729581 43.7418743,233.078354 45.1411996,234.479003 C45.0893728,234.582755 45.0375459,234.634631 44.985719,234.738383 C44.622931,234.634631 44.3119698,234.530879 43.9491817,234.375251 C41.6687997,233.38961 39.3884176,232.455844 37.1598624,231.418326 C35.397749,230.588312 33.6356355,230.069553 31.6662147,230.173305 C29.9041012,230.277056 29.2821789,229.60267 29.2821789,227.83889 L29.2821789,219.694376 C29.2821789,217.930596 29.9041012,217.308085 31.6143878,217.256209 C36.4861131,217.256209 41.3578385,217.204333 46.1777369,217.256209 C47.8361966,217.256209 48.5099459,217.930596 48.5099459,219.538748 L48.5099459,227.942642 C48.5099459,229.447042 47.8880235,230.069553 46.3850444,230.121429 C44.622931,230.173305 42.8089907,230.173305 40.7359161,230.173305 Z" id="Shape" fill="#D0021B"></path>
                        <path d="M144.285993,262.180726 C144.4933,261.661967 144.596954,261.350712 144.648781,261.039457 C144.907915,260.157567 144.648781,259.742559 143.612244,259.794435 C141.331862,259.846311 139.155133,259.379428 137.289366,257.926903 C134.231581,255.592489 134.231581,251.857425 137.289366,249.471134 C140.554459,246.981092 146.462721,247.084843 149.572333,249.782389 C151.541754,251.494294 152.111849,253.880584 150.868005,256.214999 C149.520506,258.912545 147.13647,260.624449 144.285993,262.180726 Z" id="Shape" fill="#D0021B"></path>
                        <path d="M96.0870082,294.758782 C96.138835,294.240023 96.2424887,293.669389 96.3461425,293.046878 C95.776047,292.995002 95.3096052,292.995002 94.8949903,292.943126 C92.1481664,292.683747 90.0750918,290.50496 90.0750918,287.859289 C90.0750918,285.265495 92.1481664,283.138584 94.8431634,282.879204 C97.0717186,282.671701 98.8856589,283.397963 100.129504,285.265495 C101.373348,287.184903 101.217868,289.156187 99.974023,290.919967 C98.9374857,292.424367 97.5899872,293.669389 96.3979693,295.070038 C96.2943156,294.91441 96.1906619,294.810658 96.0870082,294.758782 Z" id="Shape" fill="#0099E8"></path>
                        <path d="M214.252261,65.5192436 C221.767156,63.7035876 228.867437,69.409935 228.711956,76.5688072 L228.711956,76.7763108 C228.711956,82.8976653 223.788404,87.8258744 217.672834,87.8258744 C217.4137,87.8258744 217.102738,87.8258744 216.843604,87.7739985 L216.58447,87.7739985 C215.236971,87.7221226 214.92601,88.0852538 215.185144,89.4340269 C215.392452,90.3159169 215.703413,91.197807 216.066201,92.3909523 C211.764571,89.2265233 208.188518,85.8027149 206.270924,80.9263816 C203.731407,74.2862682 207.411115,67.127396 214.252261,65.5192436 Z" id="Shape" fill="#F8E71C"></path>
                        <path d="M94.0139335,90.9903034 C98.6265246,86.9958602 104.068345,85.9064666 110.028435,86.8921085 C110.546704,86.9958602 111.220453,86.8402326 111.686895,86.5808531 C116.299486,83.5720518 121.171211,82.8457894 126.302071,85.0764525 C128.323318,85.9583425 129.981778,87.2033638 131.27745,89.0190198 C131.588411,89.4859027 132.26216,89.7971581 132.832256,89.9009098 C136.874751,90.6271722 140.606285,91.9759453 143.767724,94.6216154 C148.535796,98.5641827 149.572333,104.478034 146.307241,109.717498 C143.871378,113.660065 140.088017,115.579473 135.73456,116.357612 C134.801676,116.513239 134.387062,116.928246 134.0761,117.75826 C132.417641,121.700828 130.707354,125.643395 128.997068,129.585962 C128.841587,129.949094 128.63428,130.260349 128.375145,130.779108 C127.442262,127.71843 126.561205,124.865257 125.680148,121.960207 C125.31736,122.167711 125.110053,122.271462 124.902745,122.42709 C121.223038,125.020884 117.336023,126.058402 113.293527,125.799023 L112.671605,125.799023 C104.845748,125.799023 98.5228708,121.285821 98.5228708,115.683225 C98.5228708,115.475721 98.5228708,115.216342 98.5746977,115.008838 C98.056429,114.49008 97.3826798,114.023197 96.6052768,113.556314 C87.691056,108.576229 86.4472112,97.526665 94.0139335,90.9903034 Z" id="Shape" fill="#0099E8"></path>
                        <g id="twitter-logo-silhouette" transform="translate(116.047759, 105.500000) scale(-1, 1) translate(-116.047759, -105.500000) translate(106.047759, 97.000000)" fill="#FFFFFF">
                            <path d="M20,1.93653595 C19.2638889,2.26271242 18.4740523,2.48392157 17.644183,2.58267974 C18.4915359,2.07526144 19.1401634,1.27042484 19.4475817,0.314346405 C18.6527451,0.784248366 17.7753922,1.12545752 16.8405556,1.31042484 C16.0919608,0.511830065 15.0271569,0.0144117647 13.8461111,0.0144117647 C11.5802941,0.0144117647 9.74313725,1.85156863 9.74313725,4.11614379 C9.74313725,4.43732026 9.77937908,4.75101307 9.84937908,5.05098039 C6.44003268,4.87973856 3.41686275,3.24630719 1.39349673,0.764248366 C1.03980392,1.36915033 0.838594771,2.07398693 0.838594771,2.82637255 C0.838594771,4.24986928 1.56346405,5.50588235 2.66326797,6.24071895 C1.99088235,6.21823529 1.35849673,6.03326797 0.804869281,5.72581699 L0.804869281,5.77705882 C0.804869281,7.76418301 2.21960784,9.42261438 4.0954902,9.80006536 C3.75179739,9.89254902 3.38937908,9.94379085 3.01444444,9.94379085 C2.7495098,9.94379085 2.49330065,9.91754902 2.2420915,9.86754902 C2.76447712,11.4984967 4.27921569,12.6845098 6.07388889,12.7170261 C4.67039216,13.8168301 2.90071895,14.4704575 0.978594771,14.4704575 C0.647418301,14.4704575 0.32120915,14.4504575 3.26797381e-05,14.4142157 C1.81594771,15.5802614 3.97179739,16.2601307 6.28885621,16.2601307 C13.8361765,16.2601307 17.9616667,10.0087908 17.9616667,4.58732026 L17.9479085,4.05617647 C18.7539869,3.48124183 19.4513399,2.75888889 20,1.93653595 Z" id="Shape"></path>
                        </g>
                    </g>
                </g>
            </g>
            <text id="Uncovering-Truth-Bey" font-family="Lato-Regular, Lato" font-size="19" font-weight="normal" letter-spacing="0.22799997">
                <tspan x="201" y="150" fill="#4A4A4A">Uncovering </tspan>
                <tspan x="303.03" y="150" fill="#D0021B">Truth</tspan>
                <tspan x="201" y="173" fill="#4A4A4A">Beyond Data</tspan>
            </text>
        </g>
    </g>
</svg>