<?xml version="1.0" encoding="UTF-8"?>
<svg width="203px" height="51px" viewBox="0 0 203 51" version="1.1" xmlns="http://www.w3.org/2000/svg" xmlns:xlink="http://www.w3.org/1999/xlink">
    <!-- Generator: Sketch 43.1 (39012) - http://www.bohemiancoding.com/sketch -->
    <title>Group</title>
    <desc>Created with Sketch.</desc>
    <defs></defs>
    <g id="Page-1" stroke="none" stroke-width="1" fill="none" fill-rule="evenodd">
        <g id="0a-login" transform="translate(-901.000000, -26.000000)">
            <g id="right-panel" transform="translate(901.000000, 26.000000)">
                <g id="FORM" transform="translate(0.000000, 0.600000)">
                    <g id="Group">
                        <g id="Group-3">
                            <path d="M19.6821181,9.99881085 L8.55457426,9.99881085 L8.55457426,27.6502204 C8.55457426,28.1472398 8.71584139,28.6296337 9.03838051,29.0974167 C9.3755805,29.6090543 9.78607867,29.8648692 10.2698873,29.8648692 C12.4543568,29.8648692 13.5465752,27.6136975 13.5465752,23.1112865 L17.9668051,25.6329164 C16.2808051,29.3605619 13.6712096,31.2170477 10.1379402,31.2024295 C8.08541853,31.1878113 6.48740779,30.2522594 5.34386001,28.3957457 C4.84539047,27.5917438 4.59615943,26.7877538 4.59615943,25.9837519 L4.59615943,9.99881085 L0,9.99881085 L0,7.36754484 L4.59615943,7.36754484 L4.59615943,0 L8.55457426,2.7409021 L8.55457426,7.36754484 L19.6821181,7.36754484 L19.6821181,9.99881085 Z M26.4366301,13.6186068 C26.7079309,13.5161957 27.7770903,13.2963233 29.6441288,12.9589851 C30.4504766,12.8128029 31.2494819,12.7397129 32.0411689,12.7397129 C35.3398644,12.7397129 37.4583282,13.6606468 38.3966238,15.5025423 C39.0270411,16.7304725 39.3422451,19.2082233 39.3422451,22.9358687 L39.3422451,31.3778472 C39.0343668,31.2609015 37.8688453,30.7858165 35.8456453,29.9525781 C35.8456453,29.4847952 35.7503511,29.1851262 35.5597598,29.0535622 C34.7827338,29.506727 34.1449955,29.8502499 33.646526,30.0841414 C32.0631521,30.8296705 30.2232407,31.2024295 28.1267364,31.2024295 C25.2385453,31.2024295 23.0101266,30.2961136 21.4414136,28.4834546 C20.6790484,27.6063615 20.2978716,26.6269556 20.2978716,25.5452075 C20.2978716,24.3318955 20.8989582,23.1259106 22.1011494,21.9272168 C24.4322276,19.6029202 27.3277058,18.4407893 30.7876708,18.4407893 C32.8841751,18.4407893 34.5701497,18.9231833 35.8456453,19.8879856 L35.8456453,17.8706817 C35.2005671,17.0520615 34.5738244,16.5038865 33.9653983,16.2261404 C33.3569722,15.9483943 32.5249804,15.8241413 31.4693978,15.8533777 C29.1089979,15.8972324 26.9465522,16.3284633 24.9819958,17.1470835 C24.1023436,17.512539 23.2446957,17.8414439 22.4090261,18.1338083 L22.4090261,16.5111942 C22.5996174,16.3503938 22.8781698,16.1091969 23.2446915,15.7875961 C23.303335,15.714505 23.3399866,15.670651 23.3546475,15.6560328 L23.3546475,9.99881085 L18.8464528,9.99881085 L18.8464528,7.36754484 L40.8816286,7.36754484 L40.8816286,9.99881085 L26.2354938,9.99881085 L26.2354938,13.5071655 C26.2941373,13.5071655 26.3527799,13.5364015 26.4114233,13.5948744 C26.4199817,13.6034079 26.428384,13.6113187 26.4366301,13.6186068 L26.4366301,13.6186068 Z M35.8456453,23.8787391 C35.8456453,23.2355375 35.0759613,22.6581266 33.53657,22.1464889 C32.2610744,21.7225606 31.1981774,21.5105997 30.347847,21.5105997 C27.2544036,21.5105997 24.7767539,22.6215675 22.9148236,24.8435366 C22.1671193,25.7352479 21.7932727,26.4661478 21.7932727,27.0362583 C22.101151,28.1033882 23.3106545,28.6369451 25.4218196,28.6369451 C28.1487413,28.6369451 30.6410516,27.9572082 32.8988254,26.5977139 C34.8633819,25.4136383 35.8456453,24.5073224 35.8456453,23.8787391 Z M60.2558701,9.99881085 L49.1283262,9.99881085 L49.1283262,27.6502204 C49.1283262,28.1472398 49.2895933,28.6296337 49.6121324,29.0974167 C49.9493324,29.6090543 50.3598306,29.8648692 50.8436393,29.8648692 C53.0281087,29.8648692 54.1203271,27.6136975 54.1203271,23.1112865 L58.540557,25.6329164 C56.8545571,29.3605619 54.2449615,31.2170477 50.7116921,31.2024295 C48.6591705,31.1878113 47.0611597,30.2522594 45.9176119,28.3957457 C45.4191424,27.5917438 45.1699114,26.7877538 45.1699114,25.9837519 L45.1699114,9.99881085 L40.5737519,9.99881085 L40.5737519,7.36754484 L45.1699114,7.36754484 L45.1699114,0 L49.1283262,2.7409021 L49.1283262,7.36754484 L60.2558701,7.36754484 L60.2558701,9.99881085 Z M87.2610556,7.36754484 L87.2170733,9.99881085 L84.9739715,9.99881085 L84.9739715,14.1869093 C84.7100759,14.7131651 84.0943286,15.824133 83.1267113,17.5198462 L75.3198376,31.2024295 C74.0150203,31.2024295 72.3070546,30.1718606 70.1958895,28.1106919 C67.8794722,25.8594864 66.721281,23.3598087 66.721281,20.6115838 C66.721281,19.2082349 67.1757611,17.899924 68.0847349,16.686612 C68.4952393,16.1311197 68.7004884,15.7145067 68.7004884,15.4367606 C68.7004884,14.925123 68.2679992,14.669308 67.4030079,14.669308 C66.7579297,14.669308 66.1348521,14.932432 65.5337565,15.4586878 C65.3138435,15.6487247 64.8373724,16.1676636 64.1043289,17.0155202 L61.267465,14.4500359 C62.2350823,13.6314157 63.1806942,13.1270947 64.1043289,12.9370579 C64.5588159,12.8347304 65.1452418,12.7835674 65.8636244,12.7835674 C69.8367199,12.7397127 71.8232378,14.8520135 71.8232378,19.120533 C71.8232378,19.6906435 71.7609301,20.5457964 71.6363127,21.6860174 C71.5116953,22.8262384 71.4493875,23.6813913 71.4493875,24.2515018 C71.4493875,26.5611801 71.8598857,27.818328 72.6808944,28.022983 C73.1353813,28.022983 73.670495,27.4674991 74.2862515,26.3565146 L80.9935655,14.2746181 L80.9935655,9.99881085 L59.6181255,9.99881085 L59.6181255,7.36754484 L87.2610556,7.36754484 Z M95.0271625,13.6186068 C95.2984633,13.5161957 96.3676227,13.2963233 98.2346612,12.9589851 C99.041009,12.8128029 99.8400143,12.7397129 100.631701,12.7397129 C103.930397,12.7397129 106.048861,13.6606468 106.987156,15.5025423 C107.617574,16.7304725 107.932777,19.2082233 107.932777,22.9358687 L107.932777,31.3778472 C107.624899,31.2609015 106.459378,30.7858165 104.436178,29.9525781 C104.436178,29.4847952 104.340884,29.1851262 104.150292,29.0535622 C103.373266,29.506727 102.735528,29.8502499 102.237058,30.0841414 C100.653685,30.8296705 98.8137731,31.2024295 96.7172688,31.2024295 C93.8290776,31.2024295 91.600659,30.2961136 90.031946,28.4834546 C89.2695808,27.6063615 88.888404,26.6269556 88.888404,25.5452075 C88.888404,24.3318955 89.4894906,23.1259106 90.6916818,21.9272168 C93.02276,19.6029202 95.9182382,18.4407893 99.3782032,18.4407893 C101.474707,18.4407893 103.160682,18.9231833 104.436178,19.8879856 L104.436178,17.8706817 C103.791099,17.0520615 103.164357,16.5038865 102.555931,16.2261404 C101.947505,15.9483943 101.115513,15.8241413 100.05993,15.8533777 C97.6995303,15.8972324 95.5370846,16.3284633 93.5725282,17.1470835 C92.692876,17.512539 91.8352281,17.8414439 90.9995585,18.1338083 L90.9995585,16.5111942 C91.1901498,16.3503938 91.4687022,16.1091969 91.8352239,15.7875961 C91.8938674,15.714505 91.930519,15.670651 91.9451798,15.6560328 L91.9451798,9.99881085 L87.4369852,9.99881085 L87.4369852,7.36754484 L109.472161,7.36754484 L109.472161,9.99881085 L94.8260262,9.99881085 L94.8260262,13.5071655 C94.8846697,13.5071655 94.9433123,13.5364015 95.0019557,13.5948744 C95.0105141,13.6034079 95.0189164,13.6113187 95.0271625,13.6186068 L95.0271625,13.6186068 Z M104.436178,23.8787391 C104.436178,23.2355375 103.666494,22.6581266 102.127102,22.1464889 C100.851607,21.7225606 99.7887098,21.5105997 98.9383794,21.5105997 C95.844936,21.5105997 93.3672863,22.6215675 91.505356,24.8435366 C90.7576517,25.7352479 90.3838051,26.4661478 90.3838051,27.0362583 C90.6916834,28.1033882 91.9011869,28.6369451 94.012352,28.6369451 C96.7392737,28.6369451 99.231584,27.9572082 101.489358,26.5977139 C103.453914,25.4136383 104.436178,24.5073224 104.436178,23.8787391 Z M142.898775,9.99881085 L135.641681,9.99881085 L135.685664,13.0686212 C137.679542,13.7995321 139.116285,14.757011 139.995938,15.9410866 C140.904911,17.1690169 141.359392,18.8281597 141.359392,20.9185648 C141.359392,23.9299176 140.149888,26.5173033 137.730845,28.6807995 C137.276358,29.0901096 136.579977,29.6236666 135.641681,30.2814864 C134.483473,31.1001066 133.75044,31.5094105 133.442562,31.5094105 C133.134684,31.5094105 131.719931,30.2230267 129.198262,27.6502204 C130.752314,27.562511 132.372315,27.0654991 134.058315,26.1591696 C135.65635,25.311313 137.01246,24.2734351 138.126686,23.0455048 C139.328877,21.7298652 139.929964,20.3338464 139.929964,18.8574064 C139.929964,17.3955847 139.116298,16.3796338 137.488941,15.8095233 C136.697255,15.5317772 135.91291,15.4075242 135.135884,15.4367606 C130.385762,15.6267974 127.475623,18.3822901 126.40538,23.7033213 L121.897185,21.8614351 C121.897185,20.6335048 122.373656,19.259413 123.326613,17.7391184 C123.678474,17.1836261 123.861732,16.8693391 123.876393,16.7962481 C123.876393,16.1091918 122.886799,15.7656689 120.907582,15.7656689 C118.371251,15.7656689 116.399394,16.8766367 114.991951,19.0986058 C114.376194,20.0780264 114.06832,21.0574323 114.06832,22.0368529 C114.06832,24.0834033 115.013932,26.0202881 116.905184,27.8475653 L121.083511,31.8821732 C118.53252,31.0050801 116.164825,29.7333143 113.980356,28.0668375 C111.062843,25.8448684 109.604108,23.4621347 109.604108,20.9185648 C109.604108,17.7025569 111.23144,15.3052052 114.486153,13.7264377 C115.908257,13.0393815 117.374322,12.6958585 118.884392,12.6958585 C120.819627,12.6958585 122.754832,13.2732694 124.690067,14.4281086 C125.42311,14.8666552 125.848269,15.1005431 125.965556,15.1297796 C127.079782,14.6473784 128.303946,14.1284395 129.638085,13.5729472 C130.341807,13.2805828 131.052849,13.0832399 131.771231,12.9809123 L131.815214,9.99881085 L108.944372,9.99881085 L108.944372,7.36754484 L142.898775,7.36754484 L142.898775,9.99881085 Z" id="Tatvam" fill="#D0011B"></path>
                            <rect id="Rectangle-2" fill="#D0021B" x="0" y="6.98874296" width="143.269231" height="3.49437148"></rect>
                        </g>
                        <path d="M8.22939493,46.8751615 C8.58495016,46.8751615 8.90254811,46.8154117 9.18219829,46.6959103 C9.46184847,46.5764088 9.69854882,46.4091094 9.89230645,46.1940068 C10.0860641,45.9789043 10.233877,45.7219801 10.3357495,45.4232266 C10.4376221,45.1244731 10.4885576,44.7958491 10.4885576,44.4373449 L10.4885576,39.2330845 L11.6451051,39.2330845 L11.6451051,44.4373449 C11.6451051,44.9312841 11.566205,45.3893659 11.4084024,45.8116042 C11.2505998,46.2338426 11.0248855,46.5993122 10.7312528,46.9080242 C10.4376201,47.2167362 10.079074,47.4587229 9.65560373,47.6339916 C9.23213345,47.8092604 8.75673527,47.8968934 8.22939493,47.8968934 C7.70205459,47.8968934 7.22665641,47.8092604 6.80318613,47.6339916 C6.37971586,47.4587229 6.02017101,47.2167362 5.72454082,46.9080242 C5.42891063,46.5993122 5.20219763,46.2338426 5.04439503,45.8116042 C4.88659243,45.3893659 4.80769231,44.9312841 4.80769231,44.4373449 L4.80769231,39.2330845 L5.96423978,39.2330845 L5.96423978,44.4313698 C5.96423978,44.7898741 6.0151753,45.118498 6.11704786,45.4172516 C6.21892043,45.7160051 6.36673331,45.9729293 6.56049094,46.1880318 C6.75424856,46.4031343 6.99194765,46.5714296 7.27359534,46.6929227 C7.55524302,46.8144158 7.8738397,46.8751615 8.22939493,46.8751615 Z M15.0048855,42.6209325 C15.1367205,42.4735475 15.2765435,42.3401062 15.4243586,42.2206048 C15.5721737,42.1011034 15.7289752,41.9985329 15.8947678,41.9128902 C16.0605604,41.8272475 16.2363379,41.7615227 16.4221055,41.7157139 C16.6078732,41.669905 16.808619,41.6470009 17.0243492,41.6470009 C17.3559344,41.6470009 17.6485639,41.7017716 17.9022466,41.8113145 C18.1559293,41.9208575 18.3676612,42.076207 18.5374488,42.2773677 C18.7072365,42.4785284 18.8360734,42.7205151 18.9239634,43.0033351 C19.0118535,43.2861551 19.0557978,43.5988458 19.0557978,43.9414165 L19.0557978,47.7953177 L17.983145,47.7953177 L17.983145,43.9414165 C17.983145,43.4833278 17.8782778,43.1278164 17.6685401,42.8748718 C17.4588025,42.6219271 17.1402058,42.4954567 16.7127405,42.4954567 C16.3971353,42.4954567 16.1025083,42.5711398 15.8288506,42.7225082 C15.5551929,42.8738767 15.3025128,43.0790177 15.0708027,43.3379374 L15.0708027,47.7953177 L13.9981498,47.7953177 L13.9981498,41.7426015 L14.6393445,41.7426015 C14.7911546,41.7426015 14.8850358,41.816293 14.9209908,41.9636781 L15.0048855,42.6209325 Z M25.6095668,42.8181089 C25.5776068,42.8619261 25.5456473,42.8957843 25.5136873,42.9196846 C25.4817272,42.9435848 25.4377829,42.9555348 25.3818528,42.9555348 C25.3219278,42.9555348 25.2560112,42.930639 25.1841012,42.8808468 C25.1121911,42.8310545 25.0233037,42.7762839 24.9174361,42.7165332 C24.8115685,42.6567825 24.6817329,42.6020118 24.5279253,42.5522196 C24.3741177,42.5024273 24.1853566,42.4775315 23.9616365,42.4775315 C23.6620113,42.4775315 23.3983451,42.5303105 23.1706299,42.6358701 C22.9429148,42.7414297 22.7521563,42.8937917 22.5983487,43.0929607 C22.4445411,43.2921298 22.3286877,43.5331207 22.2507852,43.8159407 C22.1728826,44.0987607 22.133932,44.4154347 22.133932,44.7659721 C22.133932,45.1324431 22.1758788,45.4580796 22.2597739,45.7428913 C22.343669,46.027703 22.4625185,46.2667022 22.6163261,46.4598962 C22.7701337,46.6530901 22.9558985,46.800473 23.1736262,46.9020492 C23.3913538,47.0036254 23.6360441,47.0544127 23.9077042,47.0544127 C24.1673794,47.0544127 24.3811088,47.023542 24.5488989,46.9617996 C24.7166891,46.9000572 24.8555133,46.8313449 24.9653759,46.7556607 C25.0752385,46.6799764 25.1671221,46.6112642 25.2410297,46.5495218 C25.3149372,46.4877794 25.3878449,46.4569086 25.459755,46.4569086 C25.547645,46.4569086 25.6155591,46.4907669 25.6634991,46.5584843 L25.9631228,46.946862 C25.8312877,47.1101806 25.6814774,47.2495968 25.5136873,47.3651148 C25.3458971,47.4806328 25.165126,47.5772284 24.9713684,47.6549043 C24.7776107,47.7325802 24.5748674,47.7893425 24.3631323,47.8251929 C24.1513971,47.8610434 23.9356702,47.8789683 23.7159451,47.8789683 C23.3364198,47.8789683 22.9838661,47.8092602 22.6582734,47.6698419 C22.3326807,47.5304236 22.0500385,47.3282701 21.8103384,47.0633753 C21.5706382,46.7984805 21.3828759,46.472844 21.2470458,46.0864561 C21.1112157,45.7000682 21.0433017,45.2599113 21.0433017,44.7659721 C21.0433017,44.3158501 21.106222,43.8995931 21.2320646,43.5171886 C21.3579072,43.1347841 21.5416746,42.8051643 21.7833722,42.5283194 C22.0250699,42.2514745 22.3226931,42.0353793 22.6762508,41.8800275 C23.0298086,41.7246756 23.436294,41.6470009 23.8957193,41.6470009 C24.3231846,41.6470009 24.6997079,41.7157132 25.0253006,41.8531398 C25.3508933,41.9905664 25.6395279,42.1847533 25.8912131,42.4357063 L25.6095668,42.8181089 Z M30.2577291,41.6470009 C30.7011744,41.6470009 31.1006687,41.7206923 31.4562239,41.8680774 C31.8117791,42.0154625 32.1153948,42.2245868 32.3670799,42.4954567 C32.6187651,42.7663265 32.8115211,43.0939547 32.9453537,43.4783509 C33.0791863,43.8627471 33.1461016,44.2919499 33.1461016,44.7659721 C33.1461016,45.2439778 33.0791863,45.6741764 32.9453537,46.0565809 C32.8115211,46.4389854 32.6187651,46.7656177 32.3670799,47.0364876 C32.1153948,47.3073574 31.8117791,47.5154859 31.4562239,47.6608793 C31.1006687,47.8062727 30.7011744,47.8789683 30.2577291,47.8789683 C29.8102888,47.8789683 29.4077983,47.8062727 29.0502456,47.6608793 C28.6926929,47.5154859 28.3880785,47.3073574 28.1363933,47.0364876 C27.8847082,46.7656177 27.6919522,46.4389854 27.5581196,46.0565809 C27.424287,45.6741764 27.3573717,45.2439778 27.3573717,44.7659721 C27.3573717,44.2919499 27.424287,43.8627471 27.5581196,43.4783509 C27.6919522,43.0939547 27.8847082,42.7663265 28.1363933,42.4954567 C28.3880785,42.2245868 28.6926929,42.0154625 29.0502456,41.8680774 C29.4077983,41.7206923 29.8102888,41.6470009 30.2577291,41.6470009 Z M30.2577291,47.0484377 C30.8569795,47.0484377 31.3044131,46.8482758 31.6000433,46.4479461 C31.8956735,46.0476163 32.0434864,45.4889556 32.0434864,44.7719472 C32.0434864,44.0509553 31.8956735,43.4893071 31.6000433,43.0869857 C31.3044131,42.6846643 30.8569795,42.4835066 30.2577291,42.4835066 C29.9541089,42.4835066 29.689444,42.5352898 29.4637263,42.6388576 C29.2380087,42.7424255 29.0502464,42.8918001 28.9004338,43.0869857 C28.7506212,43.2821713 28.6387628,43.5221664 28.5648552,43.8069781 C28.4909477,44.0917898 28.4539945,44.4134429 28.4539945,44.7719472 C28.4539945,45.4889556 28.6028061,46.0476163 28.9004338,46.4479461 C29.1980615,46.8482758 29.6504887,47.0484377 30.2577291,47.0484377 Z M40.2272083,41.7426015 L37.7523165,47.7953177 L36.7935207,47.7953177 L34.3186289,41.7426015 L35.1875377,41.7426015 C35.2754277,41.7426015 35.3473367,41.7645098 35.4032667,41.808327 C35.4591968,41.8521442 35.4971487,41.9039273 35.5171237,41.9636781 L37.0571895,45.8594046 C37.1051296,46.0067896 37.1470765,46.1501892 37.1830315,46.2896075 C37.2189865,46.4290258 37.2529435,46.568442 37.2849036,46.7078603 C37.3168636,46.568442 37.3508206,46.4290258 37.3867756,46.2896075 C37.4227306,46.1501892 37.466675,46.0067896 37.51861,45.8594046 L39.0766533,41.9636781 C39.1006233,41.899944 39.1405727,41.847165 39.1965027,41.8053395 C39.2524328,41.763514 39.3183493,41.7426015 39.3942544,41.7426015 L40.2272083,41.7426015 Z M45.804204,44.1087177 C45.804204,43.8617481 45.7692482,43.6356946 45.6993357,43.4305505 C45.6294232,43.2254064 45.5275521,43.0481487 45.3937195,42.8987719 C45.2598869,42.7493952 45.097093,42.6338789 44.9053329,42.5522196 C44.7135728,42.4705603 44.4958484,42.4297312 44.2521532,42.4297312 C43.7407929,42.4297312 43.336305,42.5781099 43.0386773,42.8748718 C42.7410496,43.1716336 42.5562835,43.5829114 42.4843734,44.1087177 L45.804204,44.1087177 Z M46.6671202,46.946862 C46.5352852,47.1061972 46.3774849,47.2446176 46.1937148,47.3621273 C46.0099447,47.479637 45.8131938,47.5762325 45.6034561,47.6519168 C45.3937185,47.727601 45.1769928,47.7843633 44.9532727,47.8222054 C44.7295526,47.8600475 44.5078332,47.8789683 44.2881081,47.8789683 C43.8686328,47.8789683 43.4821221,47.8082644 43.1285644,47.6668544 C42.7750067,47.5254444 42.4693935,47.3183117 42.2117159,47.0454501 C41.9540382,46.7725886 41.7532923,46.4350022 41.6094722,46.0326807 C41.4656521,45.6303593 41.3937432,45.1682941 41.3937432,44.6464713 C41.3937432,44.224233 41.458661,43.8298843 41.5884986,43.4634133 C41.7183362,43.0969423 41.9050997,42.7792724 42.1487949,42.5103943 C42.39249,42.2415161 42.6901133,42.0304001 43.0416735,41.87704 C43.3932337,41.7236798 43.7887331,41.6470009 44.2281833,41.6470009 C44.5917286,41.6470009 44.9283025,41.7077465 45.2379152,41.8292396 C45.5475279,41.9507327 45.8151891,42.1259988 46.0409067,42.3550432 C46.2666244,42.5840876 46.4434006,42.8669033 46.5712407,43.203499 C46.6990807,43.5400946 46.7629998,43.9234892 46.7629998,44.3536943 C46.7629998,44.5209963 46.7450226,44.6325293 46.7090676,44.6882966 C46.6731125,44.7440639 46.6051985,44.7719472 46.5053234,44.7719472 L42.4484186,44.7719472 C42.4604036,45.1543517 42.5133366,45.486959 42.6072191,45.769779 C42.7011017,46.052599 42.8319361,46.2886107 42.9997262,46.4778213 C43.1675163,46.6670318 43.3672634,46.8084397 43.5989736,46.9020492 C43.8306837,46.9956586 44.090355,47.0424626 44.3779952,47.0424626 C44.6456604,47.0424626 44.8763683,47.0115919 45.0701259,46.9498495 C45.2638836,46.8881071 45.4306724,46.8213865 45.5704975,46.7496856 C45.7103226,46.6779848 45.8271747,46.6112642 45.9210572,46.5495218 C46.0149398,46.4877794 46.0958374,46.4569086 46.1637524,46.4569086 C46.2516425,46.4569086 46.3195565,46.4907669 46.3674965,46.5584843 L46.6671202,46.946862 Z M49.7812092,42.9555348 C49.9729693,42.5412632 50.2086709,42.2176184 50.4883211,41.9845907 C50.7679713,41.7515629 51.1095389,41.6350508 51.5130342,41.6350508 C51.6408742,41.6350508 51.7637187,41.6489924 51.8815713,41.6768761 C51.9994239,41.7047598 52.1042911,41.7485763 52.1961762,41.808327 L52.118274,42.6030074 C52.094304,42.7025919 52.0343799,42.7523834 51.9384998,42.7523834 C51.8825698,42.7523834 51.8006735,42.7404335 51.6928084,42.7165332 C51.5849433,42.6926329 51.4630976,42.6806829 51.3272675,42.6806829 C51.1355073,42.6806829 50.9647235,42.7085662 50.8149109,42.7643335 C50.6650984,42.8201008 50.5312678,42.9027547 50.4134152,43.0122977 C50.2955626,43.1218406 50.1896966,43.2572735 50.0958141,43.4186005 C50.0019315,43.5799274 49.917039,43.7641559 49.8411339,43.9712917 L49.8411339,47.7953177 L48.7684811,47.7953177 L48.7684811,41.7426015 L49.3797134,41.7426015 C49.4955685,41.7426015 49.5754674,41.7645098 49.6194124,41.808327 C49.6633574,41.8521442 49.6933195,41.9278273 49.7092995,42.0353785 L49.7812092,42.9555348 Z M54.9567092,41.7426015 L54.9567092,47.7953177 L53.8900488,47.7953177 L53.8900488,41.7426015 L54.9567092,41.7426015 Z M55.1844232,39.8425386 C55.1844232,39.9461065 55.1634497,40.042702 55.1215022,40.1323281 C55.0795547,40.2219541 55.0236255,40.3016206 54.9537129,40.3713297 C54.8838004,40.4410389 54.8019041,40.4958095 54.7080215,40.5356433 C54.6141389,40.5754771 54.5152641,40.5953937 54.411394,40.5953937 C54.307524,40.5953937 54.2106466,40.5754771 54.1207591,40.5356433 C54.0308715,40.4958095 53.9519714,40.4410389 53.8840563,40.3713297 C53.8161413,40.3016206 53.7622096,40.2219541 53.7222595,40.1323281 C53.6823095,40.042702 53.6623348,39.9461065 53.6623348,39.8425386 C53.6623348,39.7389707 53.6823095,39.6403835 53.7222595,39.5467741 C53.7622096,39.4531647 53.8161413,39.3715066 53.8840563,39.3017974 C53.9519714,39.2320883 54.0308715,39.1773176 54.1207591,39.1374838 C54.2106466,39.09765 54.307524,39.0777334 54.411394,39.0777334 C54.5152641,39.0777334 54.6141389,39.09765 54.7080215,39.1374838 C54.8019041,39.1773176 54.8838004,39.2320883 54.9537129,39.3017974 C55.0236255,39.3715066 55.0795547,39.4531647 55.1215022,39.5467741 C55.1634497,39.6403835 55.1844232,39.7389707 55.1844232,39.8425386 Z M58.4123691,42.6209325 C58.5442042,42.4735475 58.6840272,42.3401062 58.8318423,42.2206048 C58.9796574,42.1011034 59.1364589,41.9985329 59.3022515,41.9128902 C59.4680441,41.8272475 59.6438216,41.7615227 59.8295892,41.7157139 C60.0153569,41.669905 60.2161027,41.6470009 60.4318329,41.6470009 C60.7634181,41.6470009 61.0560476,41.7017716 61.3097303,41.8113145 C61.563413,41.9208575 61.7751449,42.076207 61.9449325,42.2773677 C62.1147201,42.4785284 62.243557,42.7205151 62.3314471,43.0033351 C62.4193372,43.2861551 62.4632815,43.5988458 62.4632815,43.9414165 L62.4632815,47.7953177 L61.3906287,47.7953177 L61.3906287,43.9414165 C61.3906287,43.4833278 61.2857614,43.1278164 61.0760238,42.8748718 C60.8662862,42.6219271 60.5476895,42.4954567 60.1202242,42.4954567 C59.804619,42.4954567 59.509992,42.5711398 59.2363343,42.7225082 C58.9626766,42.8738767 58.7099965,43.0790177 58.4782864,43.3379374 L58.4782864,47.7953177 L57.4056335,47.7953177 L57.4056335,41.7426015 L58.0468282,41.7426015 C58.1986383,41.7426015 58.2925195,41.816293 58.3284745,41.9636781 L58.4123691,42.6209325 Z M66.9076997,44.8376726 C67.1234298,44.8376726 67.3131896,44.8077977 67.4769847,44.748047 C67.6407798,44.6882963 67.7786053,44.6046466 67.8904654,44.4970953 C68.0023255,44.389544 68.0862193,44.2610819 68.1421493,44.1117052 C68.1980794,43.9623284 68.226044,43.7980164 68.226044,43.6187643 C68.226044,43.2483099 68.1131868,42.9535442 67.8874692,42.7344583 C67.6617515,42.5153724 67.335165,42.4058311 66.9076997,42.4058311 C66.4762394,42.4058311 66.1476554,42.5153724 65.9219377,42.7344583 C65.6962201,42.9535442 65.583363,43.2483099 65.583363,43.6187643 C65.583363,43.7980164 65.6123263,43.9623284 65.6702538,44.1117052 C65.7281814,44.2610819 65.8130739,44.389544 65.924934,44.4970953 C66.036794,44.6046466 66.1746196,44.6882963 66.3384147,44.748047 C66.5022098,44.8077977 66.6919696,44.8376726 66.9076997,44.8376726 Z M68.8312838,48.123945 C68.8312838,47.9765599 68.7893369,47.8570603 68.7054419,47.7654425 C68.6215468,47.6738248 68.5086897,47.602125 68.3668671,47.5503411 C68.2250445,47.4985571 68.0602531,47.4617114 67.872488,47.4398028 C67.6847229,47.4178942 67.4859745,47.4009651 67.2762368,47.389015 C67.0664992,47.3770648 66.8537685,47.3651149 66.6380384,47.3531647 C66.4223082,47.3412146 66.2145712,47.321298 66.0148211,47.2934143 C65.7911009,47.3969822 65.6083323,47.527436 65.4665097,47.6847795 C65.3246871,47.842123 65.2537769,48.0263516 65.2537769,48.2374708 C65.2537769,48.3729057 65.2887326,48.4993761 65.3586452,48.6168858 C65.4285577,48.7343956 65.5354224,48.8359702 65.6792425,48.9216129 C65.8230626,49.0072556 66.0038338,49.074972 66.2215614,49.1247643 C66.4392891,49.1745565 66.6959641,49.1994523 66.9915943,49.1994523 C67.2792345,49.1994523 67.5369083,49.1735607 67.7646235,49.1217768 C67.9923386,49.0699928 68.1850946,48.9963014 68.3428972,48.9007003 C68.5006998,48.8050991 68.6215468,48.6915745 68.7054419,48.5601229 C68.7893369,48.4286714 68.8312838,48.2832802 68.8312838,48.123945 Z M69.9159216,41.9816032 L69.9159216,42.3759559 C69.9159216,42.5074074 69.8320278,42.5910571 69.6642377,42.6269076 L68.9751032,42.7165332 C69.1109333,42.9794363 69.1788473,43.2702187 69.1788473,43.5888891 C69.1788473,43.8836593 69.1219194,44.1515376 69.0080618,44.3925321 C68.8942042,44.6335266 68.7374027,44.8396634 68.5376526,45.0109488 C68.3379025,45.1822341 68.0982059,45.3136837 67.8185557,45.4053015 C67.5389055,45.4969192 67.2352899,45.5427274 66.9076997,45.5427274 C66.6240545,45.5427274 66.3563933,45.5088692 66.1047082,45.4411517 C65.9768681,45.5208193 65.878992,45.6054649 65.811077,45.6950909 C65.7431619,45.784717 65.7092049,45.8753375 65.7092049,45.9669553 C65.7092049,46.110357 65.7681303,46.2189025 65.8859829,46.292595 C66.0038355,46.3662876 66.1586395,46.4190665 66.3503996,46.4509336 C66.5421597,46.4828006 66.7608829,46.5027172 67.0065755,46.510684 C67.2522682,46.5186508 67.5039496,46.5315966 67.7616272,46.5495218 C68.0193049,46.567447 68.2709863,46.5983177 68.5166789,46.6421349 C68.7623716,46.6859521 68.9810947,46.7576518 69.1728548,46.8572364 C69.364615,46.9568209 69.519419,47.0942454 69.6372716,47.2695142 C69.7551242,47.4447829 69.8140496,47.6718322 69.8140496,47.9506688 C69.8140496,48.2095885 69.7491317,48.4605377 69.6192942,48.7035239 C69.4894566,48.9465101 69.302693,49.1626053 69.0589978,49.3518158 C68.8153027,49.5410264 68.5166807,49.6923926 68.163123,49.8059189 C67.8095653,49.9194453 67.4110697,49.9762076 66.9676244,49.9762076 C66.5241791,49.9762076 66.1366697,49.9323911 65.8050845,49.8447567 C65.4734993,49.7571223 65.1978482,49.6396144 64.9781231,49.4922293 C64.7583979,49.3448442 64.5936066,49.1745573 64.483744,48.9813633 C64.3738814,48.7881694 64.3189509,48.5860158 64.3189509,48.3748967 C64.3189509,48.0761432 64.4128321,47.8232023 64.6005972,47.6160665 C64.7883623,47.4089307 65.0460361,47.2436229 65.3736264,47.1201381 C65.1938512,47.0404705 65.051032,46.9339167 64.9451645,46.8004735 C64.8392969,46.6670302 64.7863639,46.486785 64.7863639,46.2597323 C64.7863639,46.1720979 64.8023437,46.0814774 64.8343037,45.9878679 C64.8662637,45.8942585 64.9152018,45.8006505 64.9811193,45.707041 C65.0470369,45.6134316 65.1279345,45.5248027 65.2238145,45.4411517 C65.3196946,45.3575007 65.431553,45.2838093 65.5593931,45.2200752 C65.2597679,45.0527732 65.0260637,44.8307031 64.8582736,44.5538582 C64.6904835,44.2770132 64.6065897,43.9553601 64.6065897,43.5888891 C64.6065897,43.294119 64.6635176,43.0262407 64.7773752,42.7852461 C64.8912328,42.5442516 65.0500318,42.3391106 65.2537769,42.169817 C65.457522,42.0005233 65.7002148,41.8700695 65.9818625,41.7784518 C66.2635102,41.686834 66.5721195,41.6410259 66.9076997,41.6410259 C67.1713699,41.6410259 67.4170588,41.6699049 67.644774,41.7276639 C67.8724891,41.785423 68.0802262,41.8700685 68.2679913,41.9816032 L69.9159216,41.9816032 Z M77.3545792,47.8909184 C76.8751789,47.8909184 76.5066455,47.7574772 76.2489678,47.4905907 C75.9912901,47.2237042 75.8624532,46.8393137 75.8624532,46.3374078 L75.8624532,42.6328826 L75.1313714,42.6328826 C75.0674514,42.6328826 75.0135196,42.6139618 74.9695746,42.5761197 C74.9256296,42.5382776 74.9036574,42.4795236 74.9036574,42.399856 L74.9036574,41.9756281 L75.8984081,41.8501523 L76.1440995,39.9799646 C76.1560845,39.9202138 76.1830504,39.8714182 76.2249979,39.8335761 C76.2669454,39.7957339 76.3218759,39.7768132 76.3897909,39.7768132 L76.9291136,39.7768132 L76.9291136,41.8621024 L78.6849085,41.8621024 L78.6849085,42.6328826 L76.9291136,42.6328826 L76.9291136,46.2657073 C76.9291136,46.5206437 76.9910352,46.7098514 77.1148803,46.8333362 C77.2387254,46.956821 77.3985231,47.0185625 77.5942782,47.0185625 C77.7061383,47.0185625 77.8030156,47.003625 77.8849132,46.9737497 C77.9668107,46.9438743 78.037721,46.9110119 78.097646,46.8751615 C78.1575711,46.8393111 78.2085066,46.8064487 78.2504541,46.7765733 C78.2924016,46.746698 78.3293548,46.7317605 78.3613149,46.7317605 C78.4172449,46.7317605 78.4671817,46.7656187 78.5111267,46.8333362 L78.8227354,47.3412147 C78.6389652,47.5125 78.4172459,47.6469371 78.1575708,47.7445299 C77.8978956,47.8421227 77.6302344,47.8909184 77.3545792,47.8909184 Z M81.5592985,42.549232 C81.8189736,42.2743788 82.1066095,42.0552962 82.4222147,41.8919776 C82.7378199,41.728659 83.1013597,41.6470009 83.512845,41.6470009 C83.8444302,41.6470009 84.1370597,41.7017716 84.3907424,41.8113145 C84.6444251,41.9208575 84.856157,42.076207 85.0259446,42.2773677 C85.1957322,42.4785284 85.3245691,42.7205151 85.4124592,43.0033351 C85.5003493,43.2861551 85.5442936,43.5988458 85.5442936,43.9414165 L85.5442936,47.7953177 L84.4716408,47.7953177 L84.4716408,43.9414165 C84.4716408,43.4833278 84.3667735,43.1278164 84.1570359,42.8748718 C83.9472983,42.6219271 83.6287016,42.4954567 83.2012363,42.4954567 C82.8856311,42.4954567 82.5910041,42.5711398 82.3173464,42.7225082 C82.0436887,42.8738767 81.7910086,43.0790177 81.5592985,43.3379374 L81.5592985,47.7953177 L80.4866456,47.7953177 L80.4866456,38.9940828 L81.5592985,38.9940828 L81.5592985,42.549232 Z M91.9362658,44.1087177 C91.9362658,43.8617481 91.9013101,43.6356946 91.8313975,43.4305505 C91.761485,43.2254064 91.6596139,43.0481487 91.5257814,42.8987719 C91.3919488,42.7493952 91.2291549,42.6338789 91.0373947,42.5522196 C90.8456346,42.4705603 90.6279102,42.4297312 90.3842151,42.4297312 C89.8728547,42.4297312 89.4683668,42.5781099 89.1707391,42.8748718 C88.8731114,43.1716336 88.6883453,43.5829114 88.6164353,44.1087177 L91.9362658,44.1087177 Z M92.7991821,46.946862 C92.667347,47.1061972 92.5095467,47.2446176 92.3257766,47.3621273 C92.1420065,47.479637 91.9452556,47.5762325 91.7355179,47.6519168 C91.5257803,47.727601 91.3090547,47.7843633 91.0853345,47.8222054 C90.8616144,47.8600475 90.6398951,47.8789683 90.4201699,47.8789683 C90.0006946,47.8789683 89.6141839,47.8082644 89.2606262,47.6668544 C88.9070685,47.5254444 88.6014554,47.3183117 88.3437777,47.0454501 C88.0861,46.7725886 87.8853542,46.4350022 87.7415341,46.0326807 C87.597714,45.6303593 87.525805,45.1682941 87.525805,44.6464713 C87.525805,44.224233 87.5907228,43.8298843 87.7205604,43.4634133 C87.850398,43.0969423 88.0371616,42.7792724 88.2808567,42.5103943 C88.5245519,42.2415161 88.8221751,42.0304001 89.1737353,41.87704 C89.5252956,41.7236798 89.9207949,41.6470009 90.3602452,41.6470009 C90.7237904,41.6470009 91.0603643,41.7077465 91.369977,41.8292396 C91.6795897,41.9507327 91.9472509,42.1259988 92.1729685,42.3550432 C92.3986862,42.5840876 92.5754624,42.8669033 92.7033025,43.203499 C92.8311426,43.5400946 92.8950617,43.9234892 92.8950617,44.3536943 C92.8950617,44.5209963 92.8770844,44.6325293 92.8411294,44.6882966 C92.8051744,44.7440639 92.7372603,44.7719472 92.6373853,44.7719472 L88.5804804,44.7719472 C88.5924654,45.1543517 88.6453984,45.486959 88.739281,45.769779 C88.8331635,46.052599 88.9639979,46.2886107 89.131788,46.4778213 C89.2995781,46.6670318 89.4993253,46.8084397 89.7310354,46.9020492 C89.9627456,46.9956586 90.2224168,47.0424626 90.510057,47.0424626 C90.7777222,47.0424626 91.0084301,47.0115919 91.2021878,46.9498495 C91.3959454,46.8881071 91.5627342,46.8213865 91.7025593,46.7496856 C91.8423844,46.6779848 91.9592365,46.6112642 92.0531191,46.5495218 C92.1470016,46.4877794 92.2278992,46.4569086 92.2958143,46.4569086 C92.3837043,46.4569086 92.4516183,46.4907669 92.4995584,46.5584843 L92.7991821,46.946862 Z M100.531471,47.8909184 C100.052071,47.8909184 99.6835372,47.7574772 99.4258595,47.4905907 C99.1681818,47.2237042 99.0393449,46.8393137 99.0393449,46.3374078 L99.0393449,42.6328826 L98.3082631,42.6328826 C98.2443431,42.6328826 98.1904113,42.6139618 98.1464663,42.5761197 C98.1025213,42.5382776 98.0805491,42.4795236 98.0805491,42.399856 L98.0805491,41.9756281 L99.0752998,41.8501523 L99.3209912,39.9799646 C99.3329762,39.9202138 99.3599421,39.8714182 99.4018896,39.8335761 C99.4438371,39.7957339 99.4987676,39.7768132 99.5666826,39.7768132 L100.106005,39.7768132 L100.106005,41.8621024 L101.8618,41.8621024 L101.8618,42.6328826 L100.106005,42.6328826 L100.106005,46.2657073 C100.106005,46.5206437 100.167927,46.7098514 100.291772,46.8333362 C100.415617,46.956821 100.575415,47.0185625 100.77117,47.0185625 C100.88303,47.0185625 100.979907,47.003625 101.061805,46.9737497 C101.143702,46.9438743 101.214613,46.9110119 101.274538,46.8751615 C101.334463,46.8393111 101.385398,46.8064487 101.427346,46.7765733 C101.469293,46.746698 101.506247,46.7317605 101.538207,46.7317605 C101.594137,46.7317605 101.644073,46.7656187 101.688018,46.8333362 L101.999627,47.3412147 C101.815857,47.5125 101.594138,47.6469371 101.334462,47.7445299 C101.074787,47.8421227 100.807126,47.8909184 100.531471,47.8909184 Z M104.676265,42.9555348 C104.868026,42.5412632 105.103727,42.2176184 105.383377,41.9845907 C105.663028,41.7515629 106.004595,41.6350508 106.40809,41.6350508 C106.53593,41.6350508 106.658775,41.6489924 106.776628,41.6768761 C106.89448,41.7047598 106.999347,41.7485763 107.091232,41.808327 L107.01333,42.6030074 C106.98936,42.7025919 106.929436,42.7523834 106.833556,42.7523834 C106.777626,42.7523834 106.69573,42.7404335 106.587865,42.7165332 C106.48,42.6926329 106.358154,42.6806829 106.222324,42.6806829 C106.030564,42.6806829 105.85978,42.7085662 105.709967,42.7643335 C105.560155,42.8201008 105.426324,42.9027547 105.308471,43.0122977 C105.190619,43.1218406 105.084753,43.2572735 104.99087,43.4186005 C104.896988,43.5799274 104.812095,43.7641559 104.73619,43.9712917 L104.73619,47.7953177 L103.663537,47.7953177 L103.663537,41.7426015 L104.27477,41.7426015 C104.390625,41.7426015 104.470524,41.7645098 104.514469,41.808327 C104.558414,41.8521442 104.588376,41.9278273 104.604356,42.0353785 L104.676265,42.9555348 Z M113.716911,41.7426015 L113.716911,47.7953177 L113.081709,47.7953177 C112.929899,47.7953177 112.83402,47.7216263 112.79407,47.5742412 L112.710175,46.9229618 C112.446505,47.2137486 112.15088,47.4477687 111.823289,47.6250291 C111.495699,47.8022895 111.120174,47.8909184 110.696704,47.8909184 C110.365119,47.8909184 110.072489,47.8361477 109.818807,47.7266048 C109.565124,47.6170618 109.352393,47.4627081 109.180608,47.2635391 C109.008823,47.0643701 108.879986,46.8233792 108.794094,46.5405592 C108.708201,46.2577392 108.665256,45.9450485 108.665256,45.6024778 L108.665256,41.7426015 L109.731916,41.7426015 L109.731916,45.6024778 C109.731916,46.0605666 109.836783,46.4150821 110.046521,46.6660351 C110.256258,46.916988 110.576853,47.0424626 111.008313,47.0424626 C111.323918,47.0424626 111.618545,46.9677754 111.892203,46.8183986 C112.16586,46.6690218 112.418541,46.462885 112.650251,46.1999819 L112.650251,41.7426015 L113.716911,41.7426015 Z M117.96957,47.8909184 C117.49017,47.8909184 117.121636,47.7574772 116.863959,47.4905907 C116.606281,47.2237042 116.477444,46.8393137 116.477444,46.3374078 L116.477444,42.6328826 L115.746362,42.6328826 C115.682442,42.6328826 115.62851,42.6139618 115.584565,42.5761197 C115.54062,42.5382776 115.518648,42.4795236 115.518648,42.399856 L115.518648,41.9756281 L116.513399,41.8501523 L116.75909,39.9799646 C116.771075,39.9202138 116.798041,39.8714182 116.839989,39.8335761 C116.881936,39.7957339 116.936867,39.7768132 117.004782,39.7768132 L117.544104,39.7768132 L117.544104,41.8621024 L119.299899,41.8621024 L119.299899,42.6328826 L117.544104,42.6328826 L117.544104,46.2657073 C117.544104,46.5206437 117.606026,46.7098514 117.729871,46.8333362 C117.853716,46.956821 118.013514,47.0185625 118.209269,47.0185625 C118.321129,47.0185625 118.418006,47.003625 118.499904,46.9737497 C118.581802,46.9438743 118.652712,46.9110119 118.712637,46.8751615 C118.772562,46.8393111 118.823497,46.8064487 118.865445,46.7765733 C118.907392,46.746698 118.944346,46.7317605 118.976306,46.7317605 C119.032236,46.7317605 119.082173,46.7656187 119.126118,46.8333362 L119.437726,47.3412147 C119.253956,47.5125 119.032237,47.6469371 118.772562,47.7445299 C118.512886,47.8421227 118.245225,47.8909184 117.96957,47.8909184 Z M122.174289,42.549232 C122.433964,42.2743788 122.7216,42.0552962 123.037206,41.8919776 C123.352811,41.728659 123.716351,41.6470009 124.127836,41.6470009 C124.459421,41.6470009 124.752051,41.7017716 125.005733,41.8113145 C125.259416,41.9208575 125.471148,42.076207 125.640935,42.2773677 C125.810723,42.4785284 125.93956,42.7205151 126.02745,43.0033351 C126.11534,43.2861551 126.159284,43.5988458 126.159284,43.9414165 L126.159284,47.7953177 L125.086632,47.7953177 L125.086632,43.9414165 C125.086632,43.4833278 124.981764,43.1278164 124.772027,42.8748718 C124.562289,42.6219271 124.243692,42.4954567 123.816227,42.4954567 C123.500622,42.4954567 123.205995,42.5711398 122.932337,42.7225082 C122.65868,42.8738767 122.405999,43.0790177 122.174289,43.3379374 L122.174289,47.7953177 L121.101636,47.7953177 L121.101636,38.9940828 L122.174289,38.9940828 L122.174289,42.549232 Z M133.328281,46.3374078 C133.524036,46.6003109 133.738764,46.7855353 133.972472,46.8930866 C134.206179,47.0006379 134.462854,47.0544127 134.742505,47.0544127 C135.31379,47.0544127 135.751236,46.853255 136.054856,46.4509336 C136.358477,46.0486122 136.510284,45.4491224 136.510284,44.6524464 C136.510284,43.9115376 136.375455,43.3668185 136.105792,43.0182727 C135.83613,42.6697269 135.451617,42.4954567 134.952241,42.4954567 C134.604676,42.4954567 134.302059,42.5751231 134.044381,42.7344583 C133.786704,42.8937935 133.548006,43.1188511 133.328281,43.4096379 L133.328281,46.3374078 Z M133.328281,42.6149575 C133.583961,42.3201873 133.872596,42.0851714 134.194193,41.9099027 C134.515791,41.7346339 134.886322,41.6470009 135.305797,41.6470009 C135.661352,41.6470009 135.981947,41.7147173 136.267589,41.8501523 C136.553232,41.9855872 136.795925,42.1817658 136.995675,42.4386938 C137.195425,42.6956218 137.348231,43.0073167 137.454099,43.3737876 C137.559967,43.7402586 137.6129,44.1525323 137.6129,44.6106211 C137.6129,45.1005769 137.552975,45.5467088 137.433125,45.9490302 C137.313275,46.3513516 137.140494,46.694913 136.914776,46.9797247 C136.689059,47.2645364 136.414406,47.4856107 136.090811,47.6429542 C135.767216,47.8002977 135.403676,47.8789683 135.000181,47.8789683 C134.600681,47.8789683 134.264107,47.804281 133.990449,47.6549043 C133.716791,47.5055275 133.478094,47.2934157 133.274348,47.0185625 L133.220416,47.5682662 C133.188456,47.7196347 133.096573,47.7953177 132.944762,47.7953177 L132.255628,47.7953177 L132.255628,38.9940828 L133.328281,38.9940828 L133.328281,42.6149575 Z M143.729218,44.1087177 C143.729218,43.8617481 143.694262,43.6356946 143.62435,43.4305505 C143.554437,43.2254064 143.452566,43.0481487 143.318734,42.8987719 C143.184901,42.7493952 143.022107,42.6338789 142.830347,42.5522196 C142.638587,42.4705603 142.420862,42.4297312 142.177167,42.4297312 C141.665807,42.4297312 141.261319,42.5781099 140.963691,42.8748718 C140.666064,43.1716336 140.481298,43.5829114 140.409387,44.1087177 L143.729218,44.1087177 Z M144.592134,46.946862 C144.460299,47.1061972 144.302499,47.2446176 144.118729,47.3621273 C143.934959,47.479637 143.738208,47.5762325 143.52847,47.6519168 C143.318733,47.727601 143.102007,47.7843633 142.878287,47.8222054 C142.654567,47.8600475 142.432847,47.8789683 142.213122,47.8789683 C141.793647,47.8789683 141.407136,47.8082644 141.053578,47.6668544 C140.700021,47.5254444 140.394408,47.3183117 140.13673,47.0454501 C139.879052,46.7725886 139.678306,46.4350022 139.534486,46.0326807 C139.390666,45.6303593 139.318757,45.1682941 139.318757,44.6464713 C139.318757,44.224233 139.383675,43.8298843 139.513513,43.4634133 C139.64335,43.0969423 139.830114,42.7792724 140.073809,42.5103943 C140.317504,42.2415161 140.615127,42.0304001 140.966688,41.87704 C141.318248,41.7236798 141.713747,41.6470009 142.153197,41.6470009 C142.516743,41.6470009 142.853317,41.7077465 143.162929,41.8292396 C143.472542,41.9507327 143.740203,42.1259988 143.965921,42.3550432 C144.191638,42.5840876 144.368415,42.8669033 144.496255,43.203499 C144.624095,43.5400946 144.688014,43.9234892 144.688014,44.3536943 C144.688014,44.5209963 144.670037,44.6325293 144.634082,44.6882966 C144.598127,44.7440639 144.530213,44.7719472 144.430337,44.7719472 L140.373433,44.7719472 C140.385418,45.1543517 140.438351,45.486959 140.532233,45.769779 C140.626116,46.052599 140.75695,46.2886107 140.92474,46.4778213 C141.09253,46.6670318 141.292277,46.8084397 141.523988,46.9020492 C141.755698,46.9956586 142.015369,47.0424626 142.303009,47.0424626 C142.570674,47.0424626 142.801382,47.0115919 142.99514,46.9498495 C143.188898,46.8881071 143.355686,46.8213865 143.495512,46.7496856 C143.635337,46.6779848 143.752189,46.6112642 143.846071,46.5495218 C143.939954,46.4877794 144.020851,46.4569086 144.088766,46.4569086 C144.176657,46.4569086 144.244571,46.4907669 144.292511,46.5584843 L144.592134,46.946862 Z M151.775113,41.7426015 L148.389365,49.5818549 C148.35341,49.6615225 148.308467,49.7252556 148.254535,49.7730562 C148.200602,49.8208568 148.117707,49.8447567 148.005847,49.8447567 L147.21484,49.8447567 L148.323448,47.4427903 L145.818594,41.7426015 L146.741435,41.7426015 C146.83332,41.7426015 146.906228,41.7655056 146.96016,41.8113145 C147.014093,41.8571234 147.051046,41.9079107 147.071021,41.9636781 L148.694981,45.775754 C148.758901,45.943056 148.812833,46.1183221 148.856778,46.3015576 C148.912708,46.1143387 148.972632,45.9370809 149.036552,45.769779 L150.612573,41.9636781 C150.636543,41.899944 150.677491,41.847165 150.735419,41.8053395 C150.793346,41.763514 150.858264,41.7426015 150.930174,41.7426015 L151.775113,41.7426015 Z M155.80605,41.6470009 C156.249496,41.6470009 156.64899,41.7206923 157.004545,41.8680774 C157.360101,42.0154625 157.663716,42.2245868 157.915401,42.4954567 C158.167086,42.7663265 158.359842,43.0939547 158.493675,43.4783509 C158.627508,43.8627471 158.694423,44.2919499 158.694423,44.7659721 C158.694423,45.2439778 158.627508,45.6741764 158.493675,46.0565809 C158.359842,46.4389854 158.167086,46.7656177 157.915401,47.0364876 C157.663716,47.3073574 157.360101,47.5154859 157.004545,47.6608793 C156.64899,47.8062727 156.249496,47.8789683 155.80605,47.8789683 C155.35861,47.8789683 154.95612,47.8062727 154.598567,47.6608793 C154.241014,47.5154859 153.9364,47.3073574 153.684715,47.0364876 C153.43303,46.7656177 153.240274,46.4389854 153.106441,46.0565809 C152.972608,45.6741764 152.905693,45.2439778 152.905693,44.7659721 C152.905693,44.2919499 152.972608,43.8627471 153.106441,43.4783509 C153.240274,43.0939547 153.43303,42.7663265 153.684715,42.4954567 C153.9364,42.2245868 154.241014,42.0154625 154.598567,41.8680774 C154.95612,41.7206923 155.35861,41.6470009 155.80605,41.6470009 Z M155.80605,47.0484377 C156.405301,47.0484377 156.852734,46.8482758 157.148365,46.4479461 C157.443995,46.0476163 157.591808,45.4889556 157.591808,44.7719472 C157.591808,44.0509553 157.443995,43.4893071 157.148365,43.0869857 C156.852734,42.6846643 156.405301,42.4835066 155.80605,42.4835066 C155.50243,42.4835066 155.237765,42.5352898 155.012048,42.6388576 C154.78633,42.7424255 154.598568,42.8918001 154.448755,43.0869857 C154.298943,43.2821713 154.187084,43.5221664 154.113177,43.8069781 C154.039269,44.0917898 154.002316,44.4134429 154.002316,44.7719472 C154.002316,45.4889556 154.151127,46.0476163 154.448755,46.4479461 C154.746383,46.8482758 155.19881,47.0484377 155.80605,47.0484377 Z M161.748587,42.6209325 C161.880422,42.4735475 162.020245,42.3401062 162.16806,42.2206048 C162.315875,42.1011034 162.472677,41.9985329 162.63847,41.9128902 C162.804262,41.8272475 162.98004,41.7615227 163.165807,41.7157139 C163.351575,41.669905 163.552321,41.6470009 163.768051,41.6470009 C164.099636,41.6470009 164.392266,41.7017716 164.645948,41.8113145 C164.899631,41.9208575 165.111363,42.076207 165.281151,42.2773677 C165.450938,42.4785284 165.579775,42.7205151 165.667665,43.0033351 C165.755555,43.2861551 165.7995,43.5988458 165.7995,43.9414165 L165.7995,47.7953177 L164.726847,47.7953177 L164.726847,43.9414165 C164.726847,43.4833278 164.621979,43.1278164 164.412242,42.8748718 C164.202504,42.6219271 163.883907,42.4954567 163.456442,42.4954567 C163.140837,42.4954567 162.84621,42.5711398 162.572552,42.7225082 C162.298895,42.8738767 162.046215,43.0790177 161.814504,43.3379374 L161.814504,47.7953177 L160.741852,47.7953177 L160.741852,41.7426015 L161.383046,41.7426015 C161.534856,41.7426015 161.628737,41.816293 161.664693,41.9636781 L161.748587,42.6209325 Z M172.083607,43.1825863 C171.883857,42.9156999 171.66813,42.7294796 171.43642,42.62392 C171.20471,42.5183605 170.945039,42.4655815 170.657398,42.4655815 C170.094103,42.4655815 169.660652,42.6667392 169.357032,43.0690606 C169.053411,43.471382 168.901604,44.0449802 168.901604,44.7898723 C168.901604,45.1842269 168.935561,45.5218134 169.003476,45.8026417 C169.071391,46.08347 169.171264,46.3145026 169.303099,46.4957464 C169.434934,46.6769902 169.59673,46.8094356 169.78849,46.8930866 C169.98025,46.9767376 170.197974,47.0185625 170.441669,47.0185625 C170.79323,47.0185625 171.099841,46.938896 171.361514,46.7795608 C171.623187,46.6202256 171.863882,46.395168 172.083607,46.1043812 L172.083607,43.1825863 Z M173.150268,38.9940828 L173.150268,47.7953177 L172.515065,47.7953177 C172.363255,47.7953177 172.267377,47.7216263 172.227427,47.5742412 L172.131547,46.8393112 C171.871872,47.1500149 171.576246,47.4009641 171.244661,47.5921664 C170.913076,47.7833686 170.529561,47.8789683 170.094106,47.8789683 C169.746541,47.8789683 169.43094,47.8122477 169.147295,47.6788044 C168.86365,47.5453612 168.621956,47.3491827 168.422206,47.0902629 C168.222455,46.8313432 168.06865,46.5086943 167.960785,46.1223064 C167.85292,45.7359185 167.798988,45.2917782 167.798988,44.7898723 C167.798988,44.3437337 167.858912,43.9284725 167.978763,43.5440763 C168.098613,43.1596801 168.270395,42.826077 168.494115,42.543257 C168.717835,42.260437 168.992488,42.0383669 169.31808,41.87704 C169.643673,41.7157131 170.010209,41.6350508 170.417699,41.6350508 C170.789235,41.6350508 171.107831,41.6977881 171.373499,41.8232646 C171.639167,41.9487411 171.875867,42.1230114 172.083607,42.3460807 L172.083607,38.9940828 L173.150268,38.9940828 Z M183.261569,43.1825863 C183.061818,42.9156999 182.846092,42.7294796 182.614381,42.62392 C182.382671,42.5183605 182.123,42.4655815 181.83536,42.4655815 C181.272064,42.4655815 180.838613,42.6667392 180.534993,43.0690606 C180.231373,43.471382 180.079565,44.0449802 180.079565,44.7898723 C180.079565,45.1842269 180.113522,45.5218134 180.181437,45.8026417 C180.249352,46.08347 180.349226,46.3145026 180.481061,46.4957464 C180.612896,46.6769902 180.774691,46.8094356 180.966451,46.8930866 C181.158211,46.9767376 181.375936,47.0185625 181.619631,47.0185625 C181.971191,47.0185625 182.277803,46.938896 182.539475,46.7795608 C182.801148,46.6202256 183.041843,46.395168 183.261569,46.1043812 L183.261569,43.1825863 Z M184.328229,38.9940828 L184.328229,47.7953177 L183.693027,47.7953177 C183.541217,47.7953177 183.445338,47.7216263 183.405388,47.5742412 L183.309508,46.8393112 C183.049833,47.1500149 182.754207,47.4009641 182.422622,47.5921664 C182.091037,47.7833686 181.707522,47.8789683 181.272067,47.8789683 C180.924502,47.8789683 180.608902,47.8122477 180.325256,47.6788044 C180.041611,47.5453612 179.799917,47.3491827 179.600167,47.0902629 C179.400417,46.8313432 179.246612,46.5086943 179.138746,46.1223064 C179.030881,45.7359185 178.97695,45.2917782 178.97695,44.7898723 C178.97695,44.3437337 179.036874,43.9284725 179.156724,43.5440763 C179.276574,43.1596801 179.448357,42.826077 179.672077,42.543257 C179.895797,42.260437 180.170449,42.0383669 180.496042,41.87704 C180.821635,41.7157131 181.188171,41.6350508 181.595661,41.6350508 C181.967196,41.6350508 182.285793,41.6977881 182.55146,41.8232646 C182.817128,41.9487411 183.053828,42.1230114 183.261569,42.3460807 L183.261569,38.9940828 L184.328229,38.9940828 Z M190.007097,45.0706992 C189.515711,45.0866327 189.097241,45.1254701 188.751673,45.1872125 C188.406106,45.2489549 188.124462,45.3296171 187.906735,45.4292016 C187.689007,45.5287861 187.531207,45.6462941 187.433329,45.781729 C187.335452,45.917164 187.286514,46.0685302 187.286514,46.2358321 C187.286514,46.3951673 187.312481,46.5325919 187.364416,46.6481099 C187.416351,46.763628 187.487261,46.8582318 187.577149,46.9319244 C187.667036,47.0056169 187.772902,47.0593917 187.89475,47.0932505 C188.016597,47.1271092 188.147432,47.1440383 188.287257,47.1440383 C188.475022,47.1440383 188.646804,47.1251175 188.802609,47.0872754 C188.958415,47.0494333 189.105229,46.9946627 189.243056,46.9229618 C189.380884,46.851261 189.512717,46.7656196 189.63856,46.6660351 C189.764402,46.5664505 189.887247,46.4529259 190.007097,46.3254577 L190.007097,45.0706992 Z M186.561424,42.5970324 C186.897004,42.2743786 187.258547,42.0333877 187.646062,41.8740524 C188.033577,41.7147172 188.463034,41.6350508 188.934444,41.6350508 C189.274019,41.6350508 189.575637,41.6908173 189.839307,41.802352 C190.102978,41.9138866 190.324697,42.0692361 190.504472,42.2684051 C190.684247,42.4675741 190.820075,42.708565 190.91196,42.991385 C191.003845,43.2742051 191.049787,43.5849041 191.049787,43.9234914 L191.049787,47.7953177 L190.576382,47.7953177 C190.472512,47.7953177 190.392613,47.7783886 190.336683,47.7445299 C190.280753,47.7106712 190.236808,47.6439505 190.204848,47.544366 L190.084999,46.9707621 C189.925199,47.1181472 189.769396,47.248601 189.617586,47.3621273 C189.465776,47.4756536 189.305978,47.5712533 189.138188,47.6489292 C188.970398,47.7266052 188.791624,47.786355 188.601862,47.8281805 C188.412099,47.870006 188.201366,47.8909184 187.969656,47.8909184 C187.73395,47.8909184 187.512231,47.858056 187.304491,47.7923302 C187.096751,47.7266044 186.91598,47.6280173 186.762172,47.4965657 C186.608364,47.3651142 186.486519,47.1988105 186.396631,46.9976498 C186.306744,46.7964891 186.261801,46.5584857 186.261801,46.2836325 C186.261801,46.0446296 186.327717,45.8145929 186.459552,45.5935153 C186.591387,45.3724376 186.805117,45.1762591 187.100747,45.0049738 C187.396377,44.8336884 187.781889,44.6932763 188.257294,44.5837334 C188.7327,44.4741904 189.315961,44.4114531 190.007097,44.3955196 L190.007097,43.9234914 C190.007097,43.4534525 189.905226,43.0979411 189.701481,42.8569466 C189.497735,42.6159521 189.200112,42.4954567 188.808602,42.4954567 C188.544932,42.4954567 188.324211,42.5283191 188.146434,42.5940448 C187.968656,42.6597706 187.814851,42.733462 187.685013,42.8151213 C187.555175,42.8967806 187.443317,42.9704721 187.349435,43.0361979 C187.255552,43.1019236 187.16267,43.134786 187.070784,43.134786 C186.998874,43.134786 186.936953,43.1158652 186.885018,43.0780231 C186.833083,43.040181 186.789138,42.993377 186.753183,42.9376097 L186.561424,42.5970324 Z M195.236529,47.8909184 C194.757129,47.8909184 194.388595,47.7574772 194.130918,47.4905907 C193.87324,47.2237042 193.744403,46.8393137 193.744403,46.3374078 L193.744403,42.6328826 L193.013321,42.6328826 C192.949401,42.6328826 192.895469,42.6139618 192.851524,42.5761197 C192.807579,42.5382776 192.785607,42.4795236 192.785607,42.399856 L192.785607,41.9756281 L193.780358,41.8501523 L194.026049,39.9799646 C194.038034,39.9202138 194.065,39.8714182 194.106948,39.8335761 C194.148895,39.7957339 194.203826,39.7768132 194.271741,39.7768132 L194.811063,39.7768132 L194.811063,41.8621024 L196.566858,41.8621024 L196.566858,42.6328826 L194.811063,42.6328826 L194.811063,46.2657073 C194.811063,46.5206437 194.872985,46.7098514 194.99683,46.8333362 C195.120675,46.956821 195.280473,47.0185625 195.476228,47.0185625 C195.588088,47.0185625 195.684965,47.003625 195.766863,46.9737497 C195.84876,46.9438743 195.919671,46.9110119 195.979596,46.8751615 C196.039521,46.8393111 196.090456,46.8064487 196.132404,46.7765733 C196.174351,46.746698 196.211305,46.7317605 196.243265,46.7317605 C196.299195,46.7317605 196.349131,46.7656187 196.393076,46.8333362 L196.704685,47.3412147 C196.520915,47.5125 196.299196,47.6469371 196.03952,47.7445299 C195.779845,47.8421227 195.512184,47.8909184 195.236529,47.8909184 Z M201.658464,45.0706992 C201.167078,45.0866327 200.748608,45.1254701 200.40304,45.1872125 C200.057473,45.2489549 199.775829,45.3296171 199.558101,45.4292016 C199.340374,45.5287861 199.182574,45.6462941 199.084696,45.781729 C198.986818,45.917164 198.93788,46.0685302 198.93788,46.2358321 C198.93788,46.3951673 198.963847,46.5325919 199.015783,46.6481099 C199.067718,46.763628 199.138628,46.8582318 199.228515,46.9319244 C199.318403,47.0056169 199.424269,47.0593917 199.546116,47.0932505 C199.667964,47.1271092 199.798798,47.1440383 199.938624,47.1440383 C200.126389,47.1440383 200.298171,47.1251175 200.453976,47.0872754 C200.609781,47.0494333 200.756596,46.9946627 200.894423,46.9229618 C201.032251,46.851261 201.164084,46.7656196 201.289926,46.6660351 C201.415769,46.5664505 201.538613,46.4529259 201.658464,46.3254577 L201.658464,45.0706992 Z M198.212791,42.5970324 C198.548371,42.2743786 198.909914,42.0333877 199.297429,41.8740524 C199.684944,41.7147172 200.1144,41.6350508 200.585811,41.6350508 C200.925386,41.6350508 201.227004,41.6908173 201.490674,41.802352 C201.754344,41.9138866 201.976064,42.0692361 202.155839,42.2684051 C202.335614,42.4675741 202.471442,42.708565 202.563327,42.991385 C202.655212,43.2742051 202.701154,43.5849041 202.701154,43.9234914 L202.701154,47.7953177 L202.227749,47.7953177 C202.123878,47.7953177 202.04398,47.7783886 201.98805,47.7445299 C201.93212,47.7106712 201.888175,47.6439505 201.856215,47.544366 L201.736366,46.9707621 C201.576566,47.1181472 201.420763,47.248601 201.268953,47.3621273 C201.117143,47.4756536 200.957345,47.5712533 200.789555,47.6489292 C200.621765,47.7266052 200.442991,47.786355 200.253228,47.8281805 C200.063466,47.870006 199.852733,47.8909184 199.621022,47.8909184 C199.385317,47.8909184 199.163598,47.858056 198.955858,47.7923302 C198.748118,47.7266044 198.567346,47.6280173 198.413539,47.4965657 C198.259731,47.3651142 198.137886,47.1988105 198.047998,46.9976498 C197.95811,46.7964891 197.913167,46.5584857 197.913167,46.2836325 C197.913167,46.0446296 197.979084,45.8145929 198.110919,45.5935153 C198.242754,45.3724376 198.456483,45.1762591 198.752114,45.0049738 C199.047744,44.8336884 199.433256,44.6932763 199.908661,44.5837334 C200.384066,44.4741904 200.967328,44.4114531 201.658464,44.3955196 L201.658464,43.9234914 C201.658464,43.4534525 201.556593,43.0979411 201.352847,42.8569466 C201.149102,42.6159521 200.851479,42.4954567 200.459969,42.4954567 C200.196299,42.4954567 199.975578,42.5283191 199.7978,42.5940448 C199.620023,42.6597706 199.466217,42.733462 199.33638,42.8151213 C199.206542,42.8967806 199.094684,42.9704721 199.000801,43.0361979 C198.906919,43.1019236 198.814036,43.134786 198.722151,43.134786 C198.650241,43.134786 198.58832,43.1158652 198.536385,43.0780231 C198.48445,43.040181 198.440505,42.993377 198.40455,42.9376097 L198.212791,42.5970324 Z" id="Uncovering-the-truth" fill="#4A4A4A"></path>
                    </g>
                </g>
            </g>
        </g>
    </g>
</svg>